<?xml version="1.0" encoding="UTF-8" standalone="no"?>
<!-- Created with Inkscape (http://www.inkscape.org/) -->

<svg
   xmlns:dc="http://purl.org/dc/elements/1.1/"
   xmlns:cc="http://creativecommons.org/ns#"
   xmlns:rdf="http://www.w3.org/1999/02/22-rdf-syntax-ns#"
   xmlns:svg="http://www.w3.org/2000/svg"
   xmlns="http://www.w3.org/2000/svg"
   xmlns:sodipodi="http://sodipodi.sourceforge.net/DTD/sodipodi-0.dtd"
   xmlns:inkscape="http://www.inkscape.org/namespaces/inkscape"
   width="210mm"
   height="297mm"
   viewBox="0 0 210 297"
   version="1.1"
   id="svg8"
   inkscape:version="0.92.4 (5da689c313, 2019-01-14)"
   sodipodi:docname="treedrawing.svg">
  <defs
     id="defs2" />
  <sodipodi:namedview
     id="base"
     pagecolor="#ffffff"
     bordercolor="#666666"
     borderopacity="1.0"
     inkscape:pageopacity="0.0"
     inkscape:pageshadow="2"
     inkscape:zoom="1.4"
     inkscape:cx="304.01177"
     inkscape:cy="672.33593"
     inkscape:document-units="mm"
     inkscape:current-layer="layer1"
     showgrid="false"
     inkscape:window-width="2560"
     inkscape:window-height="1377"
     inkscape:window-x="1912"
     inkscape:window-y="-8"
     inkscape:window-maximized="1" />
  <metadata
     id="metadata5">
    <rdf:RDF>
      <cc:Work
         rdf:about="">
        <dc:format>image/svg+xml</dc:format>
        <dc:type
           rdf:resource="http://purl.org/dc/dcmitype/StillImage" />
        <dc:title></dc:title>
      </cc:Work>
    </rdf:RDF>
  </metadata>
  <g
     inkscape:label="Layer 1"
     inkscape:groupmode="layer"
     id="layer1">
    <path
       style="fill:#3f3d56;stroke-width:0.26458332"
       inkscape:connector-curvature="0"
       d="m 52.215677,31.532584 a 4.6400323,4.6400323 0 0 1 0.304271,0.973667 C 52.3718,31.995605 52.255383,31.649001 52.215677,31.532584 Z"
       id="path4522" />
    <path
       style="fill:#3f3d56;stroke-width:0.26458332"
       inkscape:connector-curvature="0"
       d="m 56.909386,47.709209 c 0,0 0,0.365125 -0.39423,1.68275 z"
       id="path4524" />
    <path
       style="fill:#3f3d56;stroke-width:0.26458332"
       inkscape:connector-curvature="0"
       d="m 105.21967,102.82456 c -10.406061,5.42396 -24.018873,10.10709 -28.096102,11.4644 3.108854,-0.80963 12.157604,-1.89971 26.177872,6.84741 17.61596,10.98815 36.45165,3.66184 36.45165,3.66184 0,0 -4.18571,8.02481 -13.081,8.54604 -8.89531,0.52387 -32.091314,-14.1261 -39.938856,-9.9404 -7.850187,4.18571 -11.51202,-1.04775 -14.652624,9.41917 -3.137959,10.46427 -8.892646,39.06573 -2.264834,55.11271 l 6.625151,16.04433 H 38.769552 c 0,0 13.604875,-36.27702 6.103938,-58.59991 -4.198938,-12.50157 -10.093854,-21.55561 -12.292542,-26.15671 -1.103312,-2.30452 -1.277937,-3.48986 0.150813,-3.43165 0.812271,0.0344 2.143125,0.47096 4.119562,1.3335 0,0 -9.069916,-8.89529 -12.03325,-8.89529 -2.965979,0 -16.9201035,-1.39435 -21.4524159,-6.10394 0,0 -6.4531875,-4.534956 -17.9652081,6.62781 -11.512021,11.16278 -8.720667,11.16278 -19.010312,10.28965 -10.12825,-0.8599 -18.063104,-5.77321 -18.309167,-5.92667 0.293688,0.11907 12.123208,4.84717 19.354271,2.43946 7.326312,-2.4421 13.604875,-11.68664 20.058062,-14.8246 6.4531875,-3.140606 10.2896458,-7.326314 19.0103124,-2.791356 l -5.74674997,-13.549312 -1.57427081,-3.712104 -0.002646,-0.0053 c 0,0 -1.92087502,-25.4635 -5.58270832,-27.207104 -3.6618333,-1.74625 -1.3943541,-6.278562 -8.1967913,-7.151687 0,0 8.3714163,-1.04775 9.9403955,4.709583 1.5716249,5.754688 12.3851615,36.800896 12.3851615,36.800896 0,0 6.625167,13.252974 13.951479,10.11502 C 29.003798,94.79975 18.886131,77.186438 18.886131,77.186438 L 6.3290062,71.429105 c 0,0 9.4191668,-0.34925 15.1738538,5.058833 5.754688,5.405437 6.103938,22.84677 6.103938,22.84677 0,0 14.475354,2.092852 17.965208,9.943042 0,0 2.267479,-6.97706 -2.092854,-11.162771 -1.090084,-1.04775 -2.235716,-2.868083 -3.339042,-5.008562 A 44.242714,44.242714 0 0 1 35.816818,66.457584 c 0.64823,-4.460875 1.04775,-8.823854 0.336021,-9.853083 -1.568979,-2.26748 -8.196791,-16.218959 -8.720666,-19.883438 -0.52123,-3.661833 0.523875,-11.33475 0.523875,-11.33475 0,0 0.174625,9.416521 2.267479,12.3825 2.092854,2.965979 8.022166,17.615958 8.022166,17.615958 0,0 0,18.486438 4.884209,27.556354 4.884208,9.069917 14.300729,19.184935 13.779486,25.812745 v 3.83646 c 0,0 10.464271,-9.94039 9.765771,-13.255622 C 65.976659,96.022125 65.10618,88.171938 58.478367,83.465 51.850555,78.755417 47.490222,71.25448 52.199805,60.440959 c 2.648479,-6.082771 3.807354,-9.350375 4.315354,-11.046354 l -2.746375,11.744854 c 0,0 -1.743604,12.03325 3.140604,16.218958 0.01323,0.01058 0.02381,0.02117 0.03704,0.03175 4.876271,4.191 11.297708,11.829521 11.297708,11.829521 l -0.01852,-0.336021 -1.375833,-24.778229 0.301625,0.661458 2.174875,4.767792 2.058458,4.511146 c 0,0 9.765771,-12.557125 21.277792,-16.742833 C 104.17191,53.117292 111.3236,38.467313 111.3236,38.467313 l 9.76841,-7.675562 -8.02481,9.593791 c 0,0 -2.4421,11.33475 -16.218958,19.359563 -13.7795,8.022166 -22.672146,19.880791 -23.196021,27.207104 -0.523875,7.326312 -1.04775,13.779501 -1.04775,13.779501 0,0 25.81275,-0.873127 31.567439,-12.210522 5.75733,-11.33475 10.46691,-11.858625 10.46691,-11.858625 l -3.31522,9.765771 -3.66184,8.371416 c 0,0 14.99923,0.34925 22.84677,9.24454 7.85019,8.89529 27.38173,11.51202 27.38173,11.51202 l -10.9855,2.96334 c 0,0 -10.46691,-3.48721 -20.40731,-9.9404 -9.9404,-6.45319 -8.89528,-12.207875 -21.27778,-5.75469 z"
       id="path4526" />
    <path
       style="opacity:0.1;stroke-width:0.26458332"
       inkscape:connector-curvature="0"
       d="m 110.78121,79.027938 c -1.10331,4.884208 -2.40242,9.601729 -4.22804,13.197416 -5.75469,11.337396 -31.567438,12.210516 -31.567438,12.210516 0,0 0.121708,-1.49754 0.306917,-3.86027 6.553729,-0.53975 24.468666,-2.844267 29.143851,-12.054412 0.42863,-0.841375 0.8255,-1.74625 1.20121,-2.69875 z"
       id="path4528" />
    <path
       style="opacity:0.1;stroke-width:0.26458332"
       inkscape:connector-curvature="0"
       d="m 70.625401,92.923854 c 0,0 -6.453187,-7.675562 -11.33475,-11.86127 -1.071562,-0.915459 -1.822966,-2.211917 -2.344208,-3.672417 -0.04233,-0.116417 -0.08202,-0.235479 -0.121708,-0.354542 0.113771,0.111125 0.227541,0.219604 0.34925,0.322792 4.273021,3.664479 9.752555,10.003896 11.051645,11.52525 0.182563,0.216958 0.283105,0.336021 0.283105,0.336021 l -1.357313,-24.452792 2.174875,4.767792 z"
       id="path4530" />
    <path
       style="opacity:0.1;stroke-width:0.26458332"
       inkscape:connector-curvature="0"
       d="m 74.360921,70.901904 c -0.03808,4.2941 -0.595408,6.848065 -0.595408,6.848065 0,0 9.762839,-12.552098 21.27073,-16.740598 0.680125,-0.430271 1.370134,-0.853905 2.076357,-1.265137 13.77836,-8.022846 16.2201,-19.359459 16.2201,-19.359459 l 8.02283,-9.592519 -9.76694,7.674015 c 0,0 -7.15079,14.650397 -18.66178,18.836216 -7.84642,2.853251 -14.881185,9.595205 -18.565889,13.599417 z"
       id="path4532" />
    <path
       style="opacity:0.1;stroke-width:0.26458332"
       inkscape:connector-curvature="0"
       d="m 59.289522,112.45746 v 3.83701 c 0,0 10.464575,-9.94134 9.766911,-13.25512 -0.533496,-2.53426 -1.172279,-7.719702 -4.406191,-12.125829 1.457695,3.329781 1.90137,6.57778 2.289524,8.421658 0.500293,2.376291 -4.739053,8.160281 -7.743714,11.242941 a 7.9535178,7.9535178 0 0 1 0.09347,1.87934 z"
       id="path4534" />
    <path
       style="opacity:0.1;stroke-width:0.26458332"
       inkscape:connector-curvature="0"
       d="m 45.252267,86.125915 c 0.08288,0.176765 0.168336,0.350705 0.258898,0.518927 2.674514,4.966946 6.706658,10.246744 9.723503,15.096538 -2.43823,-4.802807 -6.68144,-10.294914 -9.982401,-15.615465 z"
       id="path4536" />
    <path
       style="opacity:0.1;stroke-width:0.26458332"
       inkscape:connector-curvature="0"
       d="m 103.56576,121.13637 c -5.737343,-3.57873 -10.641276,-5.50998 -14.647231,-6.48843 -4.2022,1.58168 -7.660773,2.761 -9.401043,3.34006 3.121065,-0.80791 12.16334,-1.88113 26.164944,6.85254 10.98563,6.85239 22.4454,6.58229 29.51583,5.40844 a 18.273667,18.273667 0 0 0 4.81909,-5.45002 c 0,0 -18.83622,7.32519 -36.45159,-3.66259 z"
       id="path4538" />
    <path
       style="opacity:0.1;stroke-width:0.26458332"
       inkscape:connector-curvature="0"
       d="M 53.75514,78.700701 C 52.348699,75.254625 52.116964,71.154102 53.73276,66.349065 a 37.692888,37.692888 0 0 1 0.300725,-5.209551 l 2.746259,-11.74782 c -0.506331,1.694146 -1.664819,4.962438 -4.31595,11.05018 -3.356205,7.706855 -2.103636,13.729108 1.29135,18.258827 z"
       id="path4540" />
    <path
       style="opacity:0.1;stroke-width:0.26458332"
       inkscape:connector-curvature="0"
       d="m 130.77366,104.04423 c -5.44292,-6.168635 -14.32355,-8.226567 -19.25691,-8.90889 l -1.47407,3.369352 c 0,0 14.99922,0.348832 22.84764,9.243698 4.35229,4.93262 12.29706,7.93361 18.51244,9.62915 l 6.75317,-1.82228 c 0,0 -19.53385,-2.61615 -27.38227,-11.51103 z"
       id="path4542" />
    <path
       style="opacity:0.1;stroke-width:0.26458332"
       inkscape:connector-curvature="0"
       d="M 24.058793,101.64407 C 31.383992,98.504692 21.268265,80.889342 21.268265,80.889342 l -0.276728,-0.126833 c 2.521908,5.320898 6.179436,14.936459 0.95059,17.177393 -4.892789,2.096918 -9.473671,-3.120014 -11.9768542,-6.816196 0.090887,0.261408 0.1407872,0.404627 0.1407872,0.404627 0,0 6.627535,13.255107 13.952733,10.115737 z"
       id="path4544" />
    <path
       style="opacity:0.1;stroke-width:0.26458332"
       inkscape:connector-curvature="0"
       d="m 47.952909,112.98068 c 0,0 2.207263,-6.80369 -1.939319,-11.0044 1.016831,3.61885 -0.177348,7.30023 -0.177348,7.30023 -2.698382,-6.07131 -11.970392,-8.69793 -16.031675,-9.576364 0.157514,2.021344 0.18415,3.339204 0.18415,3.339204 0,0 14.475992,2.09291 17.964192,9.94133 z"
       id="path4546" />
    <path
       style="opacity:0.1;stroke-width:0.26458332"
       inkscape:connector-curvature="0"
       d="m 56.77974,49.391694 c 0.393033,-1.315085 0.393128,-1.681712 0.393128,-1.681712 z"
       id="path4548" />
    <path
       style="opacity:0.1;stroke-width:0.26458332"
       inkscape:connector-curvature="0"
       d="m -30.288374,119.29276 c 0.03517,-0.0113 0.0709,-0.0217 0.105833,-0.0333 7.325199,-2.44174 13.603949,-11.68544 20.057107,-14.8248 6.4531586,-3.13936 10.29013548,-7.325202 19.0105983,-2.79056 0,0 -1.5256192,-6.244795 -4.4820416,-10.347548 a 40.689376,40.689376 0 0 1 2.365375,6.643378 c -8.7204629,-4.534641 -12.5574715,-0.348816 -19.0105977,2.79056 -6.453127,3.13938 -12.731909,12.38306 -20.057107,14.82481 -7.325199,2.44174 -19.359446,-2.44175 -19.359446,-2.44175 0,0 8.02283,5.05788 18.312997,5.92992 1.177132,0.0997 2.181527,0.18777 3.057282,0.24931 z"
       id="path4550" />
    <path
       style="opacity:0.1;stroke-width:0.26458332"
       inkscape:connector-curvature="0"
       d="m 1.5611988,84.377813 c 0,0 -0.28575,0.0053 -0.80433337,0.01323 l -1.57427081,-3.712104 c 0.17197916,-0.0026 0.26193749,-0.0053 0.26193749,-0.0053 0,0 -1.21179161,-16.060195 -3.54541661,-23.54527 0.029104,0.01323 0.052917,0.0291 0.079375,0.04233 3.66183328,1.743604 5.5827083,27.207104 5.5827083,27.207104 z"
       id="path4552" />
    <path
       style="opacity:0.1;stroke-width:0.26458332"
       inkscape:connector-curvature="0"
       d="m 42.425049,203.98085 c 3.195669,-9.79634 10.880989,-36.88586 4.830233,-54.89742 -2.613051,-7.77843 -5.035092,-12.73851 -7.08261,-15.90287 1.531205,2.99549 3.205295,6.95772 4.965944,12.19871 7.499601,22.32441 -6.104348,58.60158 -6.104348,58.60158 z"
       id="path4554" />
    <path
       style="opacity:0.1;stroke-width:0.26458332"
       inkscape:connector-curvature="0"
       d="m 39.232573,120.82946 a 19.39409,19.39409 0 0 0 -6.651625,-1.60602 c -1.103312,-2.30452 -1.277937,-3.48986 0.150813,-3.43165 0.396875,0.0714 0.796396,0.15611 1.193271,0.254 2.804601,2.32833 5.307541,4.78367 5.307541,4.78367 z"
       id="path4556" />
    <path
       style="opacity:0.1;stroke-width:0.26458332"
       inkscape:connector-curvature="0"
       d="m -7.9835999,51.772354 a 4.5624749,4.5624749 0 0 0 0.7172378,0.916935 5.1472888,5.1472888 0 0 0 -0.7172378,-0.916935 z"
       id="path4558" />
    <path
       style="opacity:0.1;stroke-width:0.26458332"
       inkscape:connector-curvature="0"
       d="m 23.884385,80.19171 a 8.4919369,8.4919369 0 0 1 0.756124,0.815213 C 23.876503,79.17031 22.93302,77.58218 21.767719,76.487544 16.012238,71.080849 6.5940976,71.429665 6.5940976,71.429665 l 11.8112934,5.41351 a 16.867111,16.867111 0 0 1 5.478994,3.348535 z"
       id="path4560" />
    <path
       style="opacity:0.1;stroke-width:0.26458332"
       inkscape:connector-curvature="0"
       d="m 36.418116,56.60486 c 0.711779,1.028087 0.311867,5.391127 -0.3379,9.853348 a 44.239066,44.239066 0 0 0 4.3248,26.647293 31.036191,31.036191 0 0 0 1.858383,3.190132 44.281129,44.281129 0 0 1 -4.066516,-26.133258 c 0.649766,-4.462198 1.049679,-8.825251 0.337899,-9.853348 C 36.96511,58.041707 30.337544,44.088942 29.81432,40.426341 A 25.381833,25.381833 0 0 1 29.705047,36.146724 C 28.35025,32.302725 28.220866,25.385562 28.220866,25.385562 c 0,0 -1.046448,7.674031 -0.523224,11.336602 0.523224,3.662571 7.150801,17.615387 8.720474,19.882696 z"
       id="path4562" />
    <path
       style="opacity:0.1;stroke-width:0.26458332"
       inkscape:connector-curvature="0"
       d="m 52.780391,32.493395 a 4.9908354,4.9908354 0 0 0 -0.316614,-1.003491 c 0,0 0.134035,0.376415 0.316614,1.003491 z"
       id="path4564" />
    <path
       style="opacity:0.1;stroke-width:0.26458332"
       inkscape:connector-curvature="0"
       d="m -8.8217576,50.058709 c 1.5371154,0.188166 3.3052253,0.659781 4.653915,1.753529 -0.087979,-0.297561 -0.164719,-0.564309 -0.2258272,-0.788459 -1.5697041,-5.75551 -9.9413512,-4.709054 -9.9413512,-4.709054 3.783264,0.485016 4.7604657,2.103184 5.5132634,3.743984 z"
       id="path4566" />
    <path
       style="fill:#3f3d56;stroke-width:0.26458332"
       inkscape:connector-curvature="0"
       d="m 155.65041,195.01991 c -2.60112,3.98892 -1.88841,9.06232 -1.88841,9.06232 0,0 4.92994,-1.39392 7.53105,-5.38285 2.60111,-3.98892 1.8884,-9.06232 1.8884,-9.06232 0,0 -4.92993,1.39393 -7.53104,5.38285 z"
       id="path4568" />
    <path
       style="fill:#6c63ff;stroke-width:0.26458332"
       inkscape:connector-curvature="0"
       d="m 157.60426,195.72516 c -0.2056,4.75763 -3.73729,8.46903 -3.73729,8.46903 0,0 -3.19835,-4.00223 -2.99275,-8.75986 0.2056,-4.75763 3.73729,-8.46903 3.73729,-8.46903 0,0 3.19835,4.00224 2.99275,8.75986 z"
       id="path4570" />
    <rect
       style="fill:#3f3d56;stroke-width:0.26458332"
       x="-38.870846"
       y="203.71623"
       width="213.25417"
       height="0.52916664"
       id="rect4612" />
    <path
       style="fill:#3f3d56;stroke-width:0.26458332"
       inkscape:connector-curvature="0"
       d="m 77.33374,195.01991 c -2.601119,3.98892 -1.888403,9.06232 -1.888403,9.06232 0,0 4.929939,-1.39392 7.53105,-5.38285 2.60111,-3.98892 1.888402,-9.06232 1.888402,-9.06232 0,0 -4.929939,1.39393 -7.531049,5.38285 z"
       id="path4616" />
    <path
       style="fill:#6c63ff;stroke-width:0.26458332"
       inkscape:connector-curvature="0"
       d="m 79.287592,195.72516 c -0.205597,4.75763 -3.737287,8.46903 -3.737287,8.46903 0,0 -3.198347,-4.00223 -2.99275,-8.75986 0.205598,-4.75763 3.737288,-8.46903 3.737288,-8.46903 0,0 3.198349,4.00224 2.992749,8.75986 z"
       id="path4618" />
    <path
       style="fill:#3f3d56;stroke-width:0.26458332"
       inkscape:connector-curvature="0"
       d="m 34.52707,196.52884 c 1.243542,4.59684 5.502905,7.44379 5.502905,7.44379 0,0 2.243214,-4.60601 0.999683,-9.20285 -1.243531,-4.59684 -5.502908,-7.44379 -5.502908,-7.44379 0,0 -2.243211,4.606 -0.99968,9.20285 z"
       id="path4620" />
    <path
       style="fill:#6c63ff;stroke-width:0.26458332"
       inkscape:connector-curvature="0"
       d="m 36.354351,195.54093 c 3.412268,3.32171 3.82905,8.42794 3.82905,8.42794 0,0 -5.115594,-0.27932 -8.527862,-3.60102 -3.412268,-3.3217 -3.82905,-8.42794 -3.82905,-8.42794 0,0 5.115594,0.27932 8.527862,3.60102 z"
       id="path4622" />
    <path
       style="fill:#6c63ff;stroke-width:0.26458332"
       inkscape:connector-curvature="0"
       d="m 25.04461,70.906227 c -0.296646,4.752819 -3.898741,8.395928 -3.898741,8.395928 0,0 -3.121139,-4.062736 -2.824494,-8.815554 0.296646,-4.752819 3.898739,-8.395928 3.898739,-8.395928 0,0 3.121141,4.062735 2.824496,8.815554 z"
       id="path4624" />
    <path
       style="fill:#6c63ff;stroke-width:0.26458332"
       inkscape:connector-curvature="0"
       d="m -12.504051,40.859737 c 4.0283076,2.539693 5.4975997,7.447698 5.4975997,7.447698 0,0 -5.0618867,0.79035 -9.0901917,-1.749343 -4.028305,-2.539693 -5.497597,-7.447698 -5.497597,-7.447698 0,0 5.061889,-0.79035 9.090189,1.749343 z"
       id="path4626" />
    <path
       style="fill:#6c63ff;stroke-width:0.26458332"
       inkscape:connector-curvature="0"
       d="m -21.499884,98.803486 c 4.028307,2.539694 5.497599,7.447694 5.497599,7.447694 0,0 -5.061886,0.79035 -9.090191,-1.74934 -4.028305,-2.53969 -5.497597,-7.447697 -5.497597,-7.447697 0,0 5.061889,-0.79035 9.090189,1.749343 z"
       id="path4628" />
    <path
       style="fill:#6c63ff;stroke-width:0.26458332"
       inkscape:connector-curvature="0"
       d="m 60.393877,49.330647 c -1.214827,4.604507 -5.456354,7.477966 -5.456354,7.477966 0,0 -2.271909,-4.591925 -1.057082,-9.196432 1.214826,-4.604507 5.456354,-7.477966 5.456354,-7.477966 0,0 2.271905,4.591925 1.057082,9.196432 z"
       id="path4630" />
    <path
       style="fill:#6c63ff;stroke-width:0.26458332"
       inkscape:connector-curvature="0"
       d="m 98.714933,52.920892 c -1.427837,4.54297 -5.798521,7.215878 -5.798521,7.215878 0,0 -2.055701,-4.692698 -0.627856,-9.235667 1.427845,-4.54297 5.798521,-7.215878 5.798521,-7.215878 0,0 2.055693,4.692697 0.627856,9.235667 z"
       id="path4632" />
    <path
       style="fill:#6c63ff;stroke-width:0.26458332"
       inkscape:connector-curvature="0"
       d="m 140.13397,103.48202 c -2.58643,3.99846 -7.51121,5.41049 -7.51121,5.41049 0,0 -0.73135,-5.07074 1.85508,-9.069201 2.58643,-3.998463 7.51123,-5.410494 7.51123,-5.410494 0,0 0.73133,5.070745 -1.8551,9.069205 z"
       id="path4634" />
    <path
       style="fill:#3f3d56;stroke-width:0.26458332"
       inkscape:connector-curvature="0"
       d="M 131.61131,50.257146"
       id="path4636" />
  </g>
</svg>
