<?xml version="1.0" encoding="UTF-8" standalone="no"?>
<!-- Created with Inkscape (http://www.inkscape.org/) -->

<svg
   xmlns:dc="http://purl.org/dc/elements/1.1/"
   xmlns:cc="http://creativecommons.org/ns#"
   xmlns:rdf="http://www.w3.org/1999/02/22-rdf-syntax-ns#"
   xmlns:svg="http://www.w3.org/2000/svg"
   xmlns="http://www.w3.org/2000/svg"
   xmlns:sodipodi="http://sodipodi.sourceforge.net/DTD/sodipodi-0.dtd"
   xmlns:inkscape="http://www.inkscape.org/namespaces/inkscape"
   width="46.099998mm"
   height="50mm"
   viewBox="0 0 46.099998 50"
   version="1.1"
   id="svg8"
   inkscape:version="0.92.4 (5da689c313, 2019-01-14)"
   sodipodi:docname="incidamus-face-rectangle.svg">
  <defs
     id="defs2">
    <clipPath
       id="clipPath4534"
       clipPathUnits="userSpaceOnUse">
      <path
         inkscape:connector-curvature="0"
         id="path4532"
         d="M 0,740.273 H 1080 V 0 H 0 Z" />
    </clipPath>
  </defs>
  <sodipodi:namedview
     id="base"
     pagecolor="#ffffff"
     bordercolor="#666666"
     borderopacity="1.0"
     inkscape:pageopacity="0.0"
     inkscape:pageshadow="2"
     inkscape:zoom="3.959798"
     inkscape:cx="274.97338"
     inkscape:cy="21.327911"
     inkscape:document-units="mm"
     inkscape:current-layer="layer1"
     showgrid="false"
     inkscape:window-width="6400"
     inkscape:window-height="3444"
     inkscape:window-x="14384"
     inkscape:window-y="-16"
     inkscape:window-maximized="1" />
  <metadata
     id="metadata5">
    <rdf:RDF>
      <cc:Work
         rdf:about="">
        <dc:format>image/svg+xml</dc:format>
        <dc:type
           rdf:resource="http://purl.org/dc/dcmitype/StillImage" />
        <dc:title></dc:title>
      </cc:Work>
    </rdf:RDF>
  </metadata>
  <g
     inkscape:label="Layer 1"
     inkscape:groupmode="layer"
     id="layer1"
     transform="translate(0,-247)">
    <g
       transform="matrix(0.08777666,0,0,-0.0877776,-24.349904,313.75269)"
       inkscape:label="incidamus"
       id="g4526">
      <g
         id="g4528">
        <g
           clip-path="url(#clipPath4534)"
           id="g4530">
          <g
             transform="translate(100.8818,157.7522)"
             id="g4536" />
          <g
             transform="translate(231.186,155.3762)"
             id="g4540" />
          <g
             transform="translate(341.4805,152.6018)"
             id="g4544" />
          <g
             transform="translate(422.4692,157.7522)"
             id="g4548" />
          <g
             transform="translate(514.7505,109.8304)"
             id="g4552" />
          <g
             transform="translate(663.4658,40.5208)"
             id="g4556" />
          <g
             transform="translate(810.5937,63.4934)"
             id="g4560" />
          <g
             transform="translate(945.0498,131.8089)"
             id="g4564" />
          <g
             transform="translate(1049.2178,145.6712)"
             id="g4568" />
          <g
             transform="translate(460.5674,577.9939)"
             id="g4572">
            <path
               inkscape:connector-curvature="0"
               id="path4574"
               style="fill:#bf1e2d;fill-opacity:1;fill-rule:nonzero;stroke:none"
               d="m 0,0 c 0,0 -33.88,-35.721 -72.547,-22.464 0,0 15.835,1.473 16.94,6.629 L -61.131,0 -50.083,-14.73 c 0,0 32.039,2.209 50.083,14.73" />
          </g>
          <g
             transform="translate(383.6011,590.054)"
             id="g4576">
            <path
               inkscape:connector-curvature="0"
               id="path4578"
               style="fill:#bf1e2d;fill-opacity:1;fill-rule:nonzero;stroke:none"
               d="m 0,0 c 0,0 3.314,-13.258 8.838,-11.048 5.524,2.21 36.827,58.922 90.96,28.724 0,0 -29.46,21.727 -49.899,17.677 C 29.461,31.302 5.156,13.994 0,0" />
          </g>
          <g
             transform="translate(360.4009,575.3235)"
             id="g4580">
            <path
               inkscape:connector-curvature="0"
               id="path4582"
               style="fill:#bf1e2d;fill-opacity:1;fill-rule:nonzero;stroke:none"
               d="M 0,0 C 0,0 0,-6.629 -3.683,-5.892 -7.365,-5.156 -20.254,4.419 -22.464,0 c 0,0 5.524,13.994 22.464,0" />
          </g>
          <g
             transform="translate(366.293,580.9402)"
             id="g4584">
            <path
               inkscape:connector-curvature="0"
               id="path4586"
               style="fill:#bf1e2d;fill-opacity:1;fill-rule:nonzero;stroke:none"
               d="m 0,0 c 0,0 -5.156,-47.506 -15.651,-70.338 -10.495,-22.832 -20.807,-32.407 -14.178,-43.086 6.629,-10.68 34.585,-16.203 34.585,-16.203 0,0 -26.115,12.888 -26.852,25.041 C -22.832,-92.434 11.416,-39.772 0,0" />
          </g>
          <g
             transform="translate(374.3945,438.4236)"
             id="g4588">
            <path
               inkscape:connector-curvature="0"
               id="path4590"
               style="fill:#bf1e2d;fill-opacity:1;fill-rule:nonzero;stroke:none"
               d="m 0,0 c 0,0 -9.943,-20.254 1.841,-27.251 5.155,-3.061 22.284,7.336 40.877,4.787 22.096,-3.029 57.695,-2.455 59.535,-6.874 1.842,-4.419 -12.398,-70.338 -24.55,-82.491 -12.153,-12.152 -20.438,-14.853 -18.597,-19.64 1.841,-4.787 10.864,-17.686 20.438,-15.288 9.575,2.399 27.988,55.06 31.671,76.051 3.682,20.991 0,38.299 0,38.299 0,0 28.724,-53.398 29.828,-72.547 0,0 -4.05,60.026 -33.879,91.697 -29.829,31.67 -63.709,62.604 -69.233,74.02 0,0 13.626,-29.829 60.763,-75.493 0,0 -64.077,26.882 -98.694,14.73" />
          </g>
          <g
             transform="translate(385.0742,407.4895)"
             id="g4592">
            <path
               inkscape:connector-curvature="0"
               id="path4594"
               style="fill:#bf1e2d;fill-opacity:1;fill-rule:nonzero;stroke:none"
               d="m 0,0 c 0,0 1.105,-12.721 5.156,-12.252 l 4.051,0.468 c 0,0 29.829,-25.779 33.879,-72.548 0,0 5.156,26.147 -10.311,48.979 -15.467,22.832 -18.045,24.673 -18.045,24.673 0,0 9.575,-0.368 9.943,2.21 0,0 13.994,1.473 14.547,4.787 l -2.762,7.734 c 0,0 0.368,-6.997 -4.051,-8.102 -4.419,-1.105 -9.184,-1.149 -10.451,6.26 0,0 0.508,-7.365 -1.702,-8.837 -2.209,-1.474 -8.101,-2.21 -10.311,-1.474 -2.21,0.737 -4.419,9.943 -4.419,9.943 0,0 0.736,-9.206 -0.368,-9.574 C 4.051,-8.102 0,0 0,0" />
          </g>
          <g
             transform="translate(404.5918,500.6595)"
             id="g4596">
            <path
               inkscape:connector-curvature="0"
               id="path4598"
               style="fill:#bf1e2d;fill-opacity:1;fill-rule:nonzero;stroke:none"
               d="m 0,0 c 0,0 20.711,-21.359 2.438,-27.988 -18.273,-6.629 -29.321,-1.473 -31.53,-2.209 -2.21,-0.737 11.924,5.155 21.727,3.682 C 2.438,-27.988 12.889,-17.677 0,0" />
          </g>
          <g
             transform="translate(358.1914,451.3128)"
             id="g4600">
            <path
               inkscape:connector-curvature="0"
               id="path4602"
               style="fill:#bf1e2d;fill-opacity:1;fill-rule:nonzero;stroke:none"
               d="M 0,0 C 0,0 4.427,-15.28 13.261,-21.266 13.261,-21.266 12.028,-8.372 0,0" />
          </g>
          <g
             transform="translate(364.8218,552.5798)"
             id="g4604">
            <path
               inkscape:connector-curvature="0"
               id="path4606"
               style="fill:#bf1e2d;fill-opacity:1;fill-rule:nonzero;stroke:none"
               d="m 0,0 c 0,0 -6.999,-12.885 -25.412,-9.202 0,0 9.575,-8.839 22.464,-3.683 z" />
          </g>
          <g
             transform="translate(350.6421,617.7659)"
             id="g4608">
            <path
               inkscape:connector-curvature="0"
               id="path4610"
               style="fill:#bf1e2d;fill-opacity:1;fill-rule:nonzero;stroke:none"
               d="M 0,0 C 0,0 -5.815,44.191 19.833,73.652 19.833,73.652 -25.594,57.449 0,0" />
          </g>
          <g
             transform="translate(455.0435,290.7513)"
             id="g4612">
            <path
               inkscape:connector-curvature="0"
               id="path4614"
               style="fill:#bf1e2d;fill-opacity:1;fill-rule:nonzero;stroke:none"
               d="m 0,0 c 0,0 8.102,6.997 12.521,-12.152 4.419,-19.15 30.934,-19.15 55.976,0 25.042,19.149 107.532,143.253 109.004,166.821 0,0 -14.73,-75.493 -106.059,-181.184 0,0 -44.927,-33.511 -59.657,-4.787 C -2.946,-2.578 6.799,-11.988 0,0" />
          </g>
          <g
             transform="translate(419.6904,701.7292)"
             id="g4616">
            <path
               inkscape:connector-curvature="0"
               id="path4618"
               style="fill:#bf1e2d;fill-opacity:1;fill-rule:nonzero;stroke:none"
               d="m 0,0 c 0,0 33.144,-2.946 57.449,-33.88 24.305,-30.934 121.526,-30.934 159.824,-3.683 0,0 -92.064,-32.52 -142.884,8.782 C 23.569,12.521 0,0 0,0" />
          </g>
          <g
             transform="translate(525.7495,634.4729)"
             id="g4620">
            <path
               inkscape:connector-curvature="0"
               id="path4622"
               style="fill:#bf1e2d;fill-opacity:1;fill-rule:nonzero;stroke:none"
               d="M 0,0 C 0,0 61.868,-38.532 132.574,0 132.574,0 58.921,-19.383 0,0" />
          </g>
          <g
             transform="translate(592.0361,606.718)"
             id="g4624">
            <path
               inkscape:connector-curvature="0"
               id="path4626"
               style="fill:#bf1e2d;fill-opacity:1;fill-rule:nonzero;stroke:none"
               d="m 0,0 c 0,0 11.437,-48.246 35.179,-41.431 23.743,6.815 45.101,57.874 115.071,22.033 0,0 -36.397,37.253 -83.963,9.823 C 18.721,-37.004 16.94,-30.197 0,0" />
          </g>
          <g
             transform="translate(716.5078,574.3113)"
             id="g4628">
            <path
               inkscape:connector-curvature="0"
               id="path4630"
               style="fill:#bf1e2d;fill-opacity:1;fill-rule:nonzero;stroke:none"
               d="m 0,0 c 0,0 -8.102,17.595 -24.305,15.794 -16.204,-1.8 -40.508,-18.012 -28.724,-37.525 11.784,-19.514 24.957,-23.197 24.957,-23.197 0,0 -5.808,11.776 -13.909,23.197 -8.102,11.419 0,33.401 8.101,25.356 8.102,-8.044 27.988,-32.606 27.988,-32.606 z" />
          </g>
          <g
             transform="translate(650.958,534.5393)"
             id="g4632">
            <path
               inkscape:connector-curvature="0"
               id="path4634"
               style="fill:#bf1e2d;fill-opacity:1;fill-rule:nonzero;stroke:none"
               d="m 0,0 c 0,0 9.574,-8.102 2.946,-18.413 -6.629,-10.311 1.136,-18.413 6.46,-15.467 5.324,2.946 14.899,22.096 21.528,15.467 6.629,-6.629 17.676,4.419 16.203,13.257 0,0 -5.892,-11.784 -17.676,-7.365 C 17.677,-8.102 14.393,-30.126 9.406,-22.832 4.419,-15.538 20.622,-8.838 0,0" />
          </g>
          <g
             transform="translate(718.7178,534.5393)"
             id="g4636">
            <path
               inkscape:connector-curvature="0"
               id="path4638"
               style="fill:#bf1e2d;fill-opacity:1;fill-rule:nonzero;stroke:none"
               d="m 0,0 c 0,0 -4.285,-55.239 -44.124,-60.395 -39.84,-5.155 -42.049,13.994 -42.049,13.994 0,0 49.347,-36.089 86.173,46.401" />
          </g>
          <g
             transform="translate(358.1914,533.9465)"
             id="g4640">
            <path
               inkscape:connector-curvature="0"
               id="path4642"
               style="fill:#bf1e2d;fill-opacity:1;fill-rule:nonzero;stroke:none"
               d="M 0,0 C 0,0 -6.394,9.861 17.077,16.796 17.077,16.796 1.982,7.573 0,0" />
          </g>
          <g
             transform="translate(361.874,548.9363)"
             id="g4644">
            <path
               inkscape:connector-curvature="0"
               id="path4646"
               style="fill:#bf1e2d;fill-opacity:1;fill-rule:nonzero;stroke:none"
               d="M 0,0 C 0,0 -0.999,13.632 20.254,15.691 20.254,15.691 7.741,10.826 0,0" />
          </g>
          <g
             transform="translate(402.4434,569.3743)"
             id="g4648">
            <path
               inkscape:connector-curvature="0"
               id="path4650"
               style="fill:#bf1e2d;fill-opacity:1;fill-rule:nonzero;stroke:none"
               d="M 0,0 36.765,11.566 1.103,-3.161 Z" />
          </g>
          <g
             transform="translate(463.1455,580.9402)"
             id="g4652">
            <path
               inkscape:connector-curvature="0"
               id="path4654"
               style="fill:#bf1e2d;fill-opacity:1;fill-rule:nonzero;stroke:none"
               d="M 0,0 C 0,0 29.829,-3.657 43.086,4.984 43.086,4.984 26.883,-12.521 0,0" />
          </g>
          <g
             transform="translate(464.6182,575.4583)"
             id="g4656">
            <path
               inkscape:connector-curvature="0"
               id="path4658"
               style="fill:#bf1e2d;fill-opacity:1;fill-rule:nonzero;stroke:none"
               d="m 0,0 c 0,0 12.153,-9.985 32.407,-4.461 0,0 -20.991,-10.308 -32.407,2.579" />
          </g>
          <g
             transform="translate(480.8218,621.5667)"
             id="g4660">
            <path
               inkscape:connector-curvature="0"
               id="path4662"
               style="fill:#bf1e2d;fill-opacity:1;fill-rule:nonzero;stroke:none"
               d="m 0,0 c 0,-2.398 -1.944,-4.343 -4.343,-4.343 -2.399,0 -4.344,1.945 -4.344,4.343 0,2.399 1.945,4.343 4.344,4.343 C -1.944,4.343 0,2.399 0,0" />
          </g>
          <g
             transform="translate(474.3452,600.6648)"
             id="g4664">
            <path
               inkscape:connector-curvature="0"
               id="path4666"
               style="fill:#bf1e2d;fill-opacity:1;fill-rule:nonzero;stroke:none"
               d="m 0,0 c 0,-2.102 -1.704,-3.805 -3.806,-3.805 -2.101,0 -3.805,1.703 -3.805,3.805 0,2.102 1.704,3.805 3.805,3.805 C -1.704,3.805 0,2.102 0,0" />
          </g>
          <g
             transform="translate(686.1641,469.1165)"
             id="g4668">
            <path
               inkscape:connector-curvature="0"
               id="path4670"
               style="fill:#bf1e2d;fill-opacity:1;fill-rule:nonzero;stroke:none"
               d="m 0,0 c 0,-2.291 -1.856,-4.147 -4.147,-4.147 -2.29,0 -4.147,1.856 -4.147,4.147 0,2.29 1.857,4.147 4.147,4.147 C -1.856,4.147 0,2.29 0,0" />
          </g>
          <g
             transform="translate(695.9189,505.9632)"
             id="g4672">
            <path
               inkscape:connector-curvature="0"
               id="path4674"
               style="fill:#bf1e2d;fill-opacity:1;fill-rule:nonzero;stroke:none"
               d="m 0,0 c 0,-2.066 -1.675,-3.742 -3.741,-3.742 -2.067,0 -3.742,1.676 -3.742,3.742 0,2.066 1.675,3.742 3.742,3.742 C -1.675,3.742 0,2.066 0,0" />
          </g>
          <g
             transform="translate(734.1289,540.2893)"
             id="g4676">
            <path
               inkscape:connector-curvature="0"
               id="path4678"
               style="fill:#bf1e2d;fill-opacity:1;fill-rule:nonzero;stroke:none"
               d="m 0,0 c 0,3.176 2.575,5.75 5.751,5.75 3.176,0 5.75,-2.574 5.75,-5.75 0,-3.176 -2.574,-5.75 -5.75,-5.75 C 2.575,-5.75 0,-3.176 0,0" />
          </g>
          <g
             transform="translate(683.6113,592.031)"
             id="g4680">
            <path
               inkscape:connector-curvature="0"
               id="path4682"
               style="fill:#bf1e2d;fill-opacity:1;fill-rule:nonzero;stroke:none"
               d="m 0,0 c 0,-2.204 -1.786,-3.99 -3.99,-3.99 -2.203,0 -3.99,1.786 -3.99,3.99 0,2.204 1.787,3.99 3.99,3.99 C -1.786,3.99 0,2.204 0,0" />
          </g>
          <g
             transform="translate(464.6182,392.4754)"
             id="g4684">
            <path
               inkscape:connector-curvature="0"
               id="path4686"
               style="fill:#bf1e2d;fill-opacity:1;fill-rule:nonzero;stroke:none"
               d="m 0,0 c 0,0 -45.021,-27.251 -23.294,-64.077 0,0 -7.914,31.302 23.294,64.077" />
          </g>
          <g
             transform="translate(572.2314,323.158)"
             id="g4688">
            <path
               inkscape:connector-curvature="0"
               id="path4690"
               style="fill:#bf1e2d;fill-opacity:1;fill-rule:nonzero;stroke:none"
               d="m 0,0 c 0,0 26.24,-3.161 36.183,-68.192 0,0 22.596,35.008 -26.592,82.535 L -4.6,9 Z" />
          </g>
        </g>
      </g>
    </g>
  </g>
</svg>
