<?xml version="1.0" encoding="UTF-8" standalone="no"?>
<!-- Created with Inkscape (http://www.inkscape.org/) -->

<svg
   xmlns:dc="http://purl.org/dc/elements/1.1/"
   xmlns:cc="http://creativecommons.org/ns#"
   xmlns:rdf="http://www.w3.org/1999/02/22-rdf-syntax-ns#"
   xmlns:svg="http://www.w3.org/2000/svg"
   xmlns="http://www.w3.org/2000/svg"
   xmlns:sodipodi="http://sodipodi.sourceforge.net/DTD/sodipodi-0.dtd"
   xmlns:inkscape="http://www.inkscape.org/namespaces/inkscape"
   width="100mm"
   height="100mm"
   viewBox="0 0 100 100"
   version="1.1"
   id="svg8"
   inkscape:version="0.92.4 (5da689c313, 2019-01-14)"
   sodipodi:docname="incidamus-full-square.svg">
  <defs
     id="defs2">
    <clipPath
       id="clipPath4534"
       clipPathUnits="userSpaceOnUse">
      <path
         inkscape:connector-curvature="0"
         id="path4532"
         d="M 0,740.273 H 1080 V 0 H 0 Z" />
    </clipPath>
  </defs>
  <sodipodi:namedview
     id="base"
     pagecolor="#ffffff"
     bordercolor="#666666"
     borderopacity="1.0"
     inkscape:pageopacity="0.0"
     inkscape:pageshadow="2"
     inkscape:zoom="3.959798"
     inkscape:cx="507.97057"
     inkscape:cy="239.00885"
     inkscape:document-units="mm"
     inkscape:current-layer="layer1"
     showgrid="false"
     inkscape:window-width="6400"
     inkscape:window-height="3444"
     inkscape:window-x="14384"
     inkscape:window-y="-16"
     inkscape:window-maximized="1" />
  <metadata
     id="metadata5">
    <rdf:RDF>
      <cc:Work
         rdf:about="">
        <dc:format>image/svg+xml</dc:format>
        <dc:type
           rdf:resource="http://purl.org/dc/dcmitype/StillImage" />
        <dc:title></dc:title>
      </cc:Work>
    </rdf:RDF>
  </metadata>
  <g
     inkscape:label="Layer 1"
     inkscape:groupmode="layer"
     id="layer1"
     transform="translate(0,-197)">
    <g
       transform="matrix(0.09137495,0,0,-0.09137495,0.65754527,280.82122)"
       inkscape:label="incidamus"
       id="g4526">
      <g
         id="g4528">
        <g
           clip-path="url(#clipPath4534)"
           id="g4530">
          <g
             transform="translate(100.8818,157.7522)"
             id="g4536">
            <path
               inkscape:connector-curvature="0"
               id="path4538"
               style="fill:#231f20;fill-opacity:1;fill-rule:nonzero;stroke:none"
               d="m 0,0 c 0,-2.643 -0.757,-5.15 -2.277,-7.526 -1.515,-2.375 -3.597,-3.565 -6.239,-3.565 -0.527,0 -1.845,0.528 -3.96,1.585 -2.109,1.055 -3.366,1.584 -3.759,1.584 -0.269,0 -1.06,-0.33 -2.378,-0.989 -1.717,-0.926 -3.035,-1.585 -3.961,-1.981 0,-2.642 -0.926,-4.752 -2.771,-6.337 0.398,-1.188 0.527,-3.104 0.398,-5.744 -0.926,-0.791 -1.918,-1.98 -2.973,-3.562 0.399,-1.455 0.724,-3.896 0.993,-7.329 0,-0.396 -0.331,-1.024 -0.993,-1.879 -0.662,-0.861 -0.987,-1.486 -0.987,-1.882 v -6.337 c -5.313,-16.504 -8.224,-30.564 -8.746,-42.18 -0.387,-0.395 -0.842,-1.256 -1.358,-2.575 v -5.542 c 0,-2.642 -0.527,-5.349 -1.581,-8.12 1.845,-0.926 3.169,-1.386 3.96,-1.386 0.393,0 0.954,0.197 1.683,0.595 0.723,0.396 1.284,0.592 1.683,0.592 0.129,0 1.251,-0.396 3.366,-1.187 l 2.176,1.585 c 1.453,-0.925 3.433,-2.379 5.941,-4.359 v -5.346 c -1.054,-1.186 -2.048,-1.781 -2.967,-1.781 -0.528,0 -1.189,0.267 -1.98,0.791 -0.791,0.53 -1.386,0.794 -1.785,0.794 -0.134,0 -1.256,-0.626 -3.365,-1.883 -2.115,-1.253 -3.367,-1.882 -3.765,-1.882 -0.392,0 -2.311,0.267 -5.738,0.794 -3.439,0.528 -5.346,0.791 -5.745,0.791 -1.717,0 -4.886,-0.395 -9.503,-1.189 -0.662,-0.129 -1.918,-0.659 -3.764,-1.582 -1.851,-0.923 -2.973,-1.389 -3.366,-1.389 -1.189,0 -3.304,1.077 -6.339,3.227 v 2.619 c 1.318,1.077 3.169,2.891 5.548,5.444 0.522,-0.926 2.244,-1.389 5.144,-1.389 h 7.921 c 0.264,0.135 0.662,0.463 1.19,0.991 -0.264,1.057 -0.331,2.639 -0.197,4.755 0.791,1.845 2.637,3.96 5.543,6.336 0.129,0.395 0.034,0.922 -0.298,1.584 -0.331,0.66 -0.493,1.055 -0.493,1.187 -0.135,1.585 0.331,3.764 1.386,6.535 0.79,2.244 1.648,4.556 2.574,6.931 0.399,1.45 0.46,3.431 0.197,5.941 -0.264,2.11 -0.46,4.288 -0.589,6.535 0,0.791 0.201,2.245 0.617,4.356 0.415,2.109 0.69,3.498 0.83,4.16 0.965,2.64 1.997,6.931 3.102,12.872 -0.129,3.166 -0.005,7.851 0.376,14.058 0.247,2.774 0.623,5.94 1.122,9.506 0.123,0.263 0.465,0.692 1.026,1.287 0.561,0.594 0.842,1.089 0.842,1.484 0,0.398 -0.46,1.22 -1.386,2.477 -0.925,1.254 -1.385,2.605 -1.385,4.058 0,1.055 0.202,2.244 0.594,3.566 -3.169,1.318 -5.677,1.979 -7.522,1.979 -0.398,0 -2.379,-1.057 -5.941,-3.169 -3.568,-2.112 -5.548,-3.167 -5.941,-3.167 -1.06,0 -2.216,0.724 -3.467,2.177 -1.256,1.453 -1.879,2.575 -1.879,3.368 0,1.582 1.318,3.431 3.96,5.543 2.245,1.849 3.63,2.774 4.157,2.774 0.399,0 1.251,-0.266 2.575,-0.793 1.319,-0.528 2.177,-0.791 2.575,-0.791 0.393,0 1.515,0.524 3.366,1.584 1.845,1.055 2.968,1.584 3.366,1.584 0.527,0 0.954,-0.199 1.285,-0.594 C -39.571,0.199 -39.207,0 -38.809,0 c 3.961,0 6.53,1.253 7.72,3.761 0.129,0 0.527,-0.165 1.189,-0.493 0.662,-0.331 1.189,-0.497 1.582,-0.497 0.398,0 0.925,0.166 1.588,0.497 0.656,0.328 1.188,0.493 1.581,0.493 0.527,0 0.926,-0.098 1.19,-0.297 0.263,-0.196 0.594,-0.295 0.993,-0.295 0.392,0 1.15,0.261 2.277,0.791 1.116,0.524 1.879,0.791 2.272,0.791 0.398,0 0.858,-0.396 1.391,-1.187 0.791,-1.189 1.251,-1.85 1.386,-1.98 5.279,3.562 8.443,5.347 9.503,5.347 1.318,0 2.704,-1.125 4.157,-3.367 C -0.662,1.846 0,0.659 0,0" />
          </g>
          <g
             transform="translate(231.186,155.3762)"
             id="g4540">
            <path
               inkscape:connector-curvature="0"
               id="path4542"
               style="fill:#231f20;fill-opacity:1;fill-rule:nonzero;stroke:none"
               d="m 0,0 c 0,-0.396 -0.729,-1.949 -2.182,-4.653 -1.453,-2.71 -2.44,-4.328 -2.967,-4.853 0.656,-3.832 0.723,-6.602 0.196,-8.316 -0.118,-0.396 -0.449,-0.893 -0.982,-1.488 -0.533,-0.593 -0.802,-1.155 -0.802,-1.682 0,-0.396 0.331,-1.618 0.993,-3.663 0.656,-2.048 0.987,-3.268 0.987,-3.663 0,-0.396 -0.365,-1.619 -1.088,-3.663 -0.724,-2.048 -1.223,-3.664 -1.481,-4.853 -0.135,-1.717 -0.135,-3.633 0,-5.742 0.392,-2.774 0.589,-4.426 0.589,-4.95 0,-2.376 -0.662,-4.622 -1.98,-6.735 0.796,-2.244 0.796,-5.018 0,-8.316 -0.69,-0.926 -1.588,-2.376 -2.687,-4.357 -0.556,-2.112 -1.173,-5.413 -1.863,-9.901 0.494,-2.112 0.819,-4.95 0.987,-8.516 -0.527,-2.247 -1.121,-5.542 -1.783,-9.901 0.134,-1.453 0,-3.233 -0.393,-5.346 0.791,-1.453 1.189,-2.707 1.189,-3.761 0,-1.058 -0.83,-1.981 -2.48,-2.774 -1.649,-0.791 -2.344,-1.98 -2.075,-3.562 -0.533,-0.399 -1.06,-0.595 -1.588,-0.595 -1.453,0 -2.905,1.717 -4.353,5.146 0,0.264 0.269,1.221 0.819,2.874 0.55,1.648 0.685,3.267 0.415,4.851 1.094,1.45 1.537,3.529 1.335,6.238 -0.207,2.704 -0.039,4.387 0.516,5.049 0.545,0.659 1.302,1.65 2.261,2.971 0.129,0.659 -0.196,1.714 -0.993,3.17 l 0.993,0.196 c 0,2.375 -0.729,4.224 -2.176,5.545 0.106,0.129 0.555,1.254 1.335,3.366 0.561,1.584 0.841,2.703 0.841,3.365 -0.286,0.66 -0.611,1.518 -0.993,2.576 1.588,1.848 2.379,3.761 2.379,5.741 0,0.659 -0.101,1.616 -0.298,2.873 -0.196,1.253 -0.364,2.145 -0.493,2.673 0.522,0.527 1.318,1.122 2.373,1.784 0.129,0.261 0.033,0.821 -0.298,1.683 -0.331,0.855 -0.493,1.416 -0.493,1.682 0,0.923 0.23,2.575 0.696,4.951 0.46,2.375 0.69,4.089 0.69,5.147 0,0.794 -0.197,2.379 -0.595,4.755 -0.264,1.979 -0.331,3.564 -0.197,4.751 0.264,0.923 0.657,2.308 1.19,4.16 0.129,0.659 -0.067,1.648 -0.595,2.97 1.711,2.109 2.575,3.234 2.575,3.366 0,2.639 -0.729,5.08 -2.177,7.326 0.578,0.527 1.302,1.453 2.177,2.774 0,1.187 -0.791,1.846 -2.373,1.981 -1.576,0.129 -2.502,0.656 -2.777,1.582 0.129,-0.527 0.197,1.253 0.197,5.348 0,0.396 -0.163,0.856 -0.494,1.386 -0.331,0.525 -0.494,0.99 -0.494,1.386 l 1.98,2.574 c 0.264,1.187 0.859,2.772 1.784,4.752 1.582,1.849 4.157,3.1 7.719,3.761 1.319,-1.98 2.642,-3.96 3.961,-5.941 C -0.993,4.751 0,2.241 0,0 m -22.574,-95.448 c -0.532,-0.135 -1.127,-0.531 -1.783,-1.19 -1.717,0.528 -2.845,1.913 -3.367,4.16 -0.79,3.695 -1.256,5.674 -1.385,5.941 -3.304,1.846 -6.603,3.694 -9.901,5.546 -4.359,2.504 -7.596,4.95 -9.705,7.326 -0.528,1.186 -1.52,2.9 -2.973,5.146 -3.035,2.64 -7.192,6.865 -12.471,12.676 -3.702,5.941 -7.461,11.882 -11.293,17.823 -5.278,7.786 -10.03,12.473 -14.254,14.057 -0.135,-1.057 -0.527,-2.574 -1.19,-4.555 -0.791,-0.791 -1.912,-1.848 -3.365,-3.167 v -1.783 c 0,-1.186 0.443,-2.177 1.329,-2.97 1.033,-1.322 1.84,-2.508 2.435,-3.563 -0.135,-0.53 -0.135,-1.389 0,-2.575 v -2.574 c 0,-4.887 -1.587,-9.506 -4.752,-13.863 0.129,-0.53 0.129,-1.385 0,-2.574 0,-1.849 -0.269,-4.488 -0.796,-7.922 -0.791,-1.186 -1.582,-3.101 -2.373,-5.741 v -6.336 c -0.398,-0.926 -0.595,-1.652 -0.595,-2.18 0,-0.266 0.393,-1.155 1.19,-2.672 0.79,-1.521 1.183,-2.673 1.183,-3.464 0.135,-2.646 0.202,-4.096 0.202,-4.36 l -0.993,-0.592 c 0,-0.266 0.163,-0.861 0.494,-1.784 0.331,-0.924 0.432,-1.584 0.297,-1.979 -2.771,-3.167 -4.818,-4.752 -6.137,-4.752 -1.189,0 -2.373,4.752 -3.562,14.258 0,2.902 0.263,6.832 0.791,11.783 0.527,4.95 0.791,8.478 0.791,10.594 0,0.26 0.297,0.757 0.892,1.483 0.594,0.724 0.892,1.288 0.892,1.684 0.92,3.96 1.386,7.194 1.386,9.705 0,0.659 -0.365,1.582 -1.089,2.77 -0.729,1.19 -1.088,2.971 -1.088,5.347 v 1.683 2.476 c -0.444,0.129 -1.105,0.659 -1.981,1.585 0.791,2.505 1.184,5.543 1.184,9.107 3.832,2.64 5.745,5.942 5.745,9.902 0,0.923 -0.135,1.98 -0.393,3.17 -0.797,4.089 -1.189,5.87 -1.189,5.345 3.96,3.299 6.86,4.952 8.711,4.952 1.583,0 3.434,-1.122 5.543,-3.367 0.797,-0.662 1.717,-2.05 2.777,-4.159 0,-1.186 0.393,-2.771 1.184,-4.752 2.109,-1.98 5.015,-5.149 8.712,-9.506 0.661,-1.716 1.649,-3.961 2.973,-6.731 3.826,-5.15 8.644,-10.496 14.456,-16.041 l 12.477,-14.258 c 4.88,-5.545 9.037,-8.847 12.476,-9.901 0.656,-1.456 1.778,-3.565 3.365,-6.336 0.393,-0.53 0.461,-1.784 0.197,-3.765 1.189,-1.582 2.839,-4.027 4.953,-7.326 z" />
          </g>
          <g
             transform="translate(341.4805,152.6018)"
             id="g4544">
            <path
               inkscape:connector-curvature="0"
               id="path4546"
               style="fill:#231f20;fill-opacity:1;fill-rule:nonzero;stroke:none"
               d="m 0,0 c 0,-3.301 -0.724,-5.612 -2.177,-6.931 -0.263,0 -0.762,0.165 -1.486,0.496 -0.724,0.329 -1.352,0.495 -1.879,0.495 -0.399,0 -0.73,-0.068 -0.988,-0.197 -0.269,-0.134 -0.595,-0.199 -0.993,-0.199 -1.98,0 -4.488,1.386 -7.522,4.159 -3.439,3.035 -5.218,4.556 -5.347,4.556 -1.189,0 -3.108,0.261 -5.744,0.791 -0.135,0.129 -0.628,0.493 -1.487,1.088 -0.858,0.595 -1.554,0.892 -2.081,0.892 -0.393,0 -1.879,-0.76 -4.454,-2.278 -2.575,-1.519 -4.191,-2.608 -4.853,-3.268 -0.527,0 -1.553,-0.196 -3.068,-0.594 -1.52,-0.396 -2.474,-0.592 -2.872,-0.592 h -1.582 -1.582 c -1.459,0 -2.575,-0.659 -3.372,-1.972 0,-0.527 -0.129,-1.315 -0.392,-2.367 -4.623,-1.84 -9.043,-5.029 -13.267,-9.561 -4.23,-4.537 -6.867,-9.1 -7.921,-13.697 0.263,-1.186 0.325,-2.895 0.196,-5.128 -0.712,-1.315 -1.638,-3.088 -2.772,-5.32 0.129,-1.976 -0.134,-3.453 -0.791,-4.437 -0.661,-0.985 -0.992,-2.003 -0.992,-3.055 0,-0.396 0.364,-1.512 1.088,-3.352 0.724,-1.841 1.094,-3.021 1.094,-3.549 0,-0.263 -0.37,-0.819 -1.094,-1.674 -0.724,-0.853 -1.088,-1.478 -1.088,-1.873 0,-0.396 0.695,-1.776 2.081,-4.141 1.386,-2.364 2.21,-4.008 2.474,-4.925 -0.135,-1.315 0,-3.088 0.398,-5.324 0.92,-0.267 2.177,-0.791 3.759,-1.576 3.169,-2.502 4.291,-4.931 3.371,-7.293 0.129,0 1.711,-0.199 4.752,-0.592 0.656,-0.659 1.352,-1.318 2.075,-1.975 0.724,-0.656 1.419,-0.852 2.081,-0.591 2.245,-3.021 3.697,-4.533 4.359,-4.533 0.393,0 0.724,0.101 0.988,0.297 0.263,0.2 0.662,0.298 1.189,0.298 0.393,0 1.021,-0.266 1.879,-0.791 0.858,-0.53 1.554,-0.794 2.082,-0.794 0.656,0 1.845,0.264 3.562,0.794 1.716,0.525 2.642,0.791 2.771,0.791 0.264,0 0.695,-0.266 1.29,-0.791 0.595,-0.53 1.088,-0.794 1.487,-0.794 0.392,0 1.088,0.264 2.075,0.794 0.993,0.525 1.683,0.791 2.082,0.791 0.527,0 2.305,-0.331 5.346,-0.99 3.034,-0.662 4.819,-0.99 5.346,-0.99 0.398,0 1.122,0.229 2.176,0.692 1.061,0.463 1.784,0.693 2.182,0.693 1.19,0 2.407,-1.024 3.664,-3.068 1.251,-2.048 1.879,-3.335 1.879,-3.862 0,-0.923 -1.122,-2.508 -3.366,-4.752 -0.662,0.791 -1.452,1.189 -2.378,1.189 -0.393,0 -0.96,-0.367 -1.683,-1.091 -0.724,-0.726 -1.285,-1.088 -1.683,-1.088 -0.527,0 -1.453,0.163 -2.771,0.494 -1.319,0.328 -2.177,0.496 -2.575,0.496 -2.373,0 -4.819,-1.058 -7.327,-3.17 -2.373,1.453 -3.629,2.18 -3.764,2.18 -0.393,0 -1.352,-0.365 -2.867,-1.088 -1.52,-0.73 -2.479,-1.092 -2.872,-1.092 -0.791,0 -2.642,1.122 -5.548,3.369 -2.906,2.241 -4.421,3.366 -4.555,3.366 -3.433,0.923 -9.043,3.298 -16.829,7.127 -0.791,1.453 -1.981,3.235 -3.562,5.349 -1.852,1.315 -4.034,3.63 -6.536,6.93 0.264,1.714 0.196,4.357 -0.202,7.922 -1.318,2.11 -2.569,5.276 -3.758,9.503 -0.135,3.433 0.196,7.458 0.987,12.08 -1.582,2.244 -2.373,3.299 -2.373,3.167 0,0.399 0.224,0.859 0.69,1.389 0.46,0.524 0.696,0.92 0.696,1.187 v 5.149 c -0.27,2.244 -0.203,4.09 0.196,5.545 0.258,1.055 1.183,2.376 2.76,3.961 1.969,2.109 3.22,3.63 3.742,4.553 1.049,2.243 2.76,5.413 5.127,9.505 5.913,7.394 11.825,12.54 17.738,15.447 0.264,0.129 0.752,0.594 1.481,1.385 0.718,0.794 1.408,1.19 2.07,1.19 0.393,0 0.589,-0.102 0.589,-0.298 0,-0.199 0.196,-0.297 0.589,-0.297 0.527,0 1.313,0.625 2.368,1.882 1.048,1.251 1.772,1.879 2.165,1.879 0.393,0 0.886,-0.196 1.475,-0.595 0.595,-0.395 1.089,-0.592 1.487,-0.592 1.963,0 3.281,1.714 3.938,5.148 1.576,0.132 3.876,0.395 6.9,0.794 0.656,0.129 2.036,0.592 4.14,1.386 1.705,0.791 2.822,1.186 3.349,1.186 -0.263,0 0.589,-0.395 2.564,-1.186 0.258,0.524 0.454,1.514 0.589,2.969 0.129,0.525 0.982,0.791 2.564,0.791 1.705,0 2.692,-0.463 2.956,-1.385 0.258,-1.321 0.718,-2.247 1.38,-2.771 3.018,-0.267 6.143,-1.72 9.357,-4.359 C -1.61,6.665 0,3.565 0,0" />
          </g>
          <g
             transform="translate(422.4692,157.7522)"
             id="g4548">
            <path
               inkscape:connector-curvature="0"
               id="path4550"
               style="fill:#231f20;fill-opacity:1;fill-rule:nonzero;stroke:none"
               d="m 0,0 c 0,-2.643 -0.757,-5.15 -2.278,-7.526 -1.514,-2.375 -3.596,-3.565 -6.238,-3.565 -0.527,0 -1.845,0.528 -3.96,1.585 -2.109,1.055 -3.366,1.584 -3.759,1.584 -0.269,0 -1.06,-0.33 -2.378,-0.989 -1.717,-0.926 -3.035,-1.585 -3.961,-1.981 0,-2.642 -0.926,-4.752 -2.771,-6.337 0.398,-1.188 0.527,-3.104 0.398,-5.744 -0.926,-0.791 -1.918,-1.98 -2.973,-3.562 0.398,-1.455 0.724,-3.896 0.993,-7.329 0,-0.396 -0.331,-1.024 -0.993,-1.879 -0.662,-0.861 -0.987,-1.486 -0.987,-1.882 v -6.337 c -5.313,-16.504 -8.224,-30.564 -8.746,-42.18 -0.387,-0.395 -0.842,-1.256 -1.358,-2.575 v -5.542 c 0,-2.642 -0.527,-5.349 -1.582,-8.12 1.846,-0.926 3.17,-1.386 3.961,-1.386 0.393,0 0.954,0.197 1.683,0.595 0.723,0.396 1.284,0.592 1.683,0.592 0.129,0 1.251,-0.396 3.366,-1.187 l 2.176,1.585 c 1.453,-0.925 3.433,-2.379 5.941,-4.359 v -5.346 c -1.054,-1.186 -2.048,-1.781 -2.967,-1.781 -0.528,0 -1.19,0.267 -1.981,0.791 -0.791,0.53 -1.385,0.794 -1.784,0.794 -0.134,0 -1.256,-0.626 -3.365,-1.883 -2.116,-1.253 -3.367,-1.882 -3.765,-1.882 -0.393,0 -2.311,0.267 -5.739,0.794 -3.438,0.528 -5.345,0.791 -5.744,0.791 -1.717,0 -4.886,-0.395 -9.503,-1.189 -0.662,-0.129 -1.919,-0.659 -3.764,-1.582 -1.852,-0.923 -2.973,-1.389 -3.366,-1.389 -1.189,0 -3.304,1.077 -6.339,3.227 v 2.619 c 1.318,1.077 3.169,2.891 5.548,5.444 0.522,-0.926 2.244,-1.389 5.144,-1.389 h 7.921 c 0.264,0.135 0.662,0.463 1.19,0.991 -0.264,1.057 -0.331,2.639 -0.197,4.755 0.791,1.845 2.637,3.96 5.542,6.336 0.13,0.395 0.034,0.922 -0.297,1.584 -0.331,0.66 -0.493,1.055 -0.493,1.187 -0.135,1.585 0.33,3.764 1.385,6.535 0.791,2.244 1.649,4.556 2.575,6.931 0.398,1.45 0.46,3.431 0.197,5.941 -0.264,2.11 -0.46,4.288 -0.59,6.535 0,0.791 0.202,2.245 0.617,4.356 0.415,2.109 0.69,3.498 0.831,4.16 0.965,2.64 1.997,6.931 3.102,12.872 -0.129,3.166 -0.006,7.851 0.376,14.058 0.247,2.774 0.623,5.94 1.122,9.506 0.123,0.263 0.465,0.692 1.026,1.287 0.561,0.594 0.842,1.089 0.842,1.484 0,0.398 -0.46,1.22 -1.386,2.477 -0.925,1.254 -1.385,2.605 -1.385,4.058 0,1.055 0.201,2.244 0.594,3.566 -3.169,1.318 -5.677,1.979 -7.522,1.979 -0.399,0 -2.379,-1.057 -5.941,-3.169 -3.568,-2.112 -5.548,-3.167 -5.941,-3.167 -1.06,0 -2.216,0.724 -3.467,2.177 -1.256,1.453 -1.879,2.575 -1.879,3.368 0,1.582 1.318,3.431 3.96,5.543 2.244,1.849 3.63,2.774 4.157,2.774 0.399,0 1.251,-0.266 2.575,-0.793 1.318,-0.528 2.177,-0.791 2.575,-0.791 0.393,0 1.515,0.524 3.366,1.584 1.845,1.055 2.968,1.584 3.366,1.584 0.527,0 0.954,-0.199 1.284,-0.594 C -39.572,0.199 -39.207,0 -38.809,0 c 3.961,0 6.53,1.253 7.719,3.761 0.13,0 0.528,-0.165 1.19,-0.493 0.662,-0.331 1.189,-0.497 1.582,-0.497 0.398,0 0.925,0.166 1.587,0.497 0.657,0.328 1.189,0.493 1.582,0.493 0.527,0 0.926,-0.098 1.19,-0.297 0.263,-0.196 0.594,-0.295 0.992,-0.295 0.393,0 1.151,0.261 2.278,0.791 1.116,0.524 1.879,0.791 2.272,0.791 0.398,0 0.858,-0.396 1.391,-1.187 0.791,-1.189 1.251,-1.85 1.386,-1.98 5.279,3.562 8.443,5.347 9.503,5.347 1.318,0 2.704,-1.125 4.157,-3.367 C -0.662,1.846 0,0.659 0,0" />
          </g>
          <g
             transform="translate(514.7505,109.8304)"
             id="g4552">
            <path
               inkscape:connector-curvature="0"
               id="path4554"
               style="fill:#231f20;fill-opacity:1;fill-rule:nonzero;stroke:none"
               d="m 0,0 c -1.852,0.791 -2.973,2.376 -3.366,4.751 -0.134,1.714 -0.269,3.434 -0.398,5.15 -0.662,1.451 -1.521,3.565 -2.575,6.336 -1.184,0 -2.177,0.659 -2.968,1.981 0.92,1.054 1.386,1.98 1.386,2.771 -1.453,0.793 -2.771,2.308 -3.961,4.555 -1.189,2.244 -2.115,3.694 -2.771,4.356 -1.851,0.528 -4.555,1.517 -8.123,2.97 -0.662,0.794 -1.717,1.714 -3.164,2.775 -5.15,1.845 -8.516,2.771 -10.103,2.771 -0.393,0 -0.791,-0.166 -1.184,-0.494 -0.398,-0.331 -0.662,-0.496 -0.796,-0.496 -0.264,0.235 -0.926,1.29 -1.98,3.169 h -0.595 -1.184 c -0.398,0 -1.29,0.298 -2.676,0.889 -1.385,0.595 -2.345,0.892 -2.872,0.892 -0.393,0 -1.156,-0.132 -2.277,-0.396 -1.122,-0.266 -1.947,-0.395 -2.475,-0.395 0.129,0 -1.649,0.261 -5.346,0.791 -0.135,-1.582 -0.398,-3.952 -0.791,-7.113 -0.398,-3.161 -0.594,-4.875 -0.594,-5.136 0,-0.396 0.325,-2.109 0.987,-5.139 0.797,-3.427 1.257,-5.73 1.386,-6.917 0.527,-4.083 0.796,-10.077 0.796,-17.978 0.393,-0.396 0.853,-0.926 1.386,-1.582 -0.135,1.186 -0.202,-0.396 -0.202,-4.743 0.662,-0.66 1.391,-1.647 2.182,-2.965 -0.398,-1.714 -0.791,-4.084 -1.189,-7.114 1.717,-0.791 2.575,-2.106 2.575,-3.949 v -4.347 c 0.791,-0.66 1.581,-1.518 2.372,-2.57 -0.263,-2.765 -0.33,-6.653 -0.196,-11.657 1.717,-0.923 2.643,-1.913 2.772,-2.965 0.134,-1.582 0.723,-3.952 1.783,-7.113 h 4.752 c 8.449,6.466 16.964,12.872 25.547,19.208 C -3.434,-20.465 1.189,-10.563 0,0 m 14.254,7.127 c 0,-2.643 -0.364,-4.325 -1.088,-5.049 -0.724,-0.726 -1.683,-1.682 -2.872,-2.872 0.134,-1.058 0.202,-2.643 0.202,-4.752 -1.717,-1.979 -3.007,-4.984 -3.866,-9.009 -0.858,-4.028 -1.879,-6.704 -3.068,-8.022 -2.244,-1.321 -5.083,-3.893 -8.516,-7.722 -0.527,-1.186 -1.183,-2.048 -1.98,-2.575 -1.453,-1.32 -3.758,-2.905 -6.928,-4.751 -5.15,-1.98 -8.583,-3.697 -10.3,-5.15 -1.183,-1.321 -2.44,-2.572 -3.758,-3.761 -4.886,-3.697 -8.454,-5.414 -10.698,-5.151 -0.393,-0.395 -1.385,-2.046 -2.967,-4.95 -1.325,-2.244 -2.873,-3.531 -4.657,-3.859 -1.778,-0.328 -4.123,-0.761 -7.029,-1.288 -1.716,-0.793 -4.353,-1.912 -7.921,-3.365 h -1.778 c -0.399,0 -0.595,0.395 -0.595,1.186 0,0.926 0.656,2.114 1.981,3.565 1.183,1.054 2.373,2.179 3.562,3.366 -0.264,0.132 -0.398,0.463 -0.398,0.99 0,0.794 0.465,2.309 1.391,4.555 0.92,2.244 1.385,3.63 1.385,4.16 0,0.659 -0.533,3.89 -1.587,9.702 -1.055,6.6 -1.65,10.625 -1.779,12.08 -0.135,0.262 -0.431,1.089 -0.891,2.475 -0.466,1.385 -0.696,2.541 -0.696,3.464 0,0.398 0.23,1.122 0.696,2.179 0.46,1.055 0.56,1.781 0.297,2.179 -0.398,1.98 -0.864,4.09 -1.386,6.337 -0.269,0.395 -0.926,0.99 -1.98,1.781 0,0.527 0.46,1.783 1.386,3.764 -0.926,2.639 -1.521,8.05 -1.785,16.237 0,3.826 -0.925,6.601 -2.771,8.316 0,0.396 0.326,0.958 0.988,1.684 0.662,0.724 0.992,1.287 0.992,1.683 0,0.263 -0.594,1.98 -1.783,5.15 -1.19,3.166 -1.851,5.475 -1.981,6.931 -0.791,0.92 -1.716,1.385 -2.771,1.385 -0.398,0 -0.729,-0.098 -0.993,-0.297 -0.264,-0.2 -0.662,-0.297 -1.184,-0.297 -0.532,0 -1.587,0.692 -3.169,2.078 -1.587,1.389 -2.378,2.342 -2.378,2.872 0,0.395 1.122,1.386 3.365,2.971 7.13,5.278 11.024,7.921 11.685,7.921 0.399,0 2.143,-0.693 5.245,-2.079 3.103,-1.385 4.853,-2.079 5.251,-2.079 h 2.873 3.068 c 2.771,0 4.258,-0.465 4.454,-1.387 0.197,-0.926 1.684,-1.386 4.455,-1.386 0.398,0 1.122,0.098 2.182,0.297 1.054,0.199 1.778,0.298 2.176,0.298 2.379,0 11.814,-3.762 28.319,-11.287 0.129,-0.267 1.385,-1.322 3.758,-3.17 1.061,-1.585 2.839,-3.565 5.352,-5.941 1.055,-0.926 3.63,-2.247 7.719,-3.961 0.398,-0.925 0.926,-2.176 1.588,-3.761 0.791,-2.642 1.183,-6.536 1.183,-11.685" />
          </g>
          <g
             transform="translate(663.4658,40.5208)"
             id="g4556">
            <path
               inkscape:connector-curvature="0"
               id="path4558"
               style="fill:#231f20;fill-opacity:1;fill-rule:nonzero;stroke:none"
               d="m 0,0 c -1.587,-0.923 -3.107,-1.848 -4.555,-2.771 -0.533,-0.398 -1.655,-0.594 -3.366,-0.594 -2.379,0 -4.033,1.716 -4.953,5.146 -1.189,4.887 -1.751,7.557 -1.684,8.023 0.068,0.46 -0.263,1.582 -0.987,3.365 -0.728,1.781 -1.026,3.069 -0.892,3.862 0,5.016 -0.533,8.447 -1.587,10.297 -0.662,0.396 -1.65,1.119 -2.967,2.177 -0.135,1.318 0.196,3.102 0.987,5.349 -0.264,0.261 -0.926,0.395 -1.98,0.395 -0.129,-0.925 -0.393,1.714 -0.791,7.922 -1.717,1.055 -4.096,5.211 -7.13,12.473 -2.373,-1.057 -3.501,-1.582 -3.366,-1.582 -0.393,0 -1.123,0.098 -2.177,0.297 -1.061,0.197 -1.784,0.294 -2.177,0.294 h -1.486 -1.487 c -0.925,0 -1.98,0.2 -3.17,0.595 -1.716,0.527 -4.089,1.055 -7.124,1.585 -0.398,0.129 -1.128,0.659 -2.182,1.585 -1.055,0.923 -1.779,1.386 -2.177,1.386 -0.398,0 -0.858,-0.169 -1.386,-0.494 -0.532,-0.331 -0.992,-0.497 -1.384,-0.497 -0.399,0 -2.61,0.166 -6.637,0.497 -4.029,0.325 -6.238,0.494 -6.631,0.494 -0.399,0 -1.026,-0.43 -1.885,-1.288 -0.858,-0.861 -1.481,-1.287 -1.88,-1.287 -0.397,0 -1.121,0.426 -2.175,1.287 -1.061,0.858 -1.852,1.288 -2.379,1.288 -0.399,0 -1.454,-1.206 -3.17,-3.616 -4.751,0.802 -9.374,-3.147 -13.862,-11.851 -0.791,-0.673 -1.913,-1.741 -3.366,-3.217 -1.318,-2.412 -3.169,-5.425 -5.542,-9.04 -0.926,0 -1.717,0.659 -2.379,1.981 -1.189,2.109 -1.913,3.233 -2.177,3.365 3.299,3.299 7.26,8.12 11.882,14.457 0.92,1.584 1.386,3.034 1.386,4.355 0,0.659 -0.169,1.386 -0.494,2.18 -0.331,0.791 -0.499,1.318 -0.499,1.585 0,0.395 0.202,0.855 0.595,1.386 1.054,1.845 3.102,4.42 6.142,7.721 0.791,0.132 1.913,0.264 3.366,0.396 0.92,1.057 2.508,4.487 4.751,10.3 0.657,0.524 1.582,1.384 2.772,2.571 3.035,5.279 6.866,12.872 11.489,22.773 0.522,0.264 1.447,0.923 2.771,1.981 -0.134,0.659 -0.202,1.714 -0.202,3.169 0.264,0.263 2.446,2.903 6.536,7.921 -0.393,1.054 -0.662,2.639 -0.791,4.752 1.054,0.263 2.642,0.858 4.751,1.784 0.398,0.261 1.054,0.92 1.98,1.98 0.662,0.658 1.318,0.99 1.981,0.99 2.777,0 5.082,-1.52 6.933,-4.555 1.447,-2.376 2.177,-4.622 2.177,-6.732 0,0.129 -0.73,-0.594 -2.177,-2.179 v -1.981 c 0,-1.189 1.515,-5.545 4.556,-13.07 2.502,-6.337 4.285,-10.692 5.345,-13.068 -0.269,-0.135 -0.662,-0.466 -1.189,-0.991 -3.304,2.772 -6.799,7.195 -10.496,13.268 -2.243,3.828 -5.021,5.741 -8.314,5.741 -3.96,-3.792 -6.669,-7.388 -8.123,-10.785 -0.263,-0.785 -0.959,-1.275 -2.075,-1.47 -1.128,-0.199 -2.148,-0.358 -3.074,-0.487 -2.9,-4.449 -6.334,-10.788 -10.294,-19.023 -1.324,-1.571 -2.906,-3.921 -4.752,-7.06 1.447,-0.915 3.164,-1.372 5.145,-1.372 0.398,0 1.02,-0.168 1.884,-0.496 0.859,-0.331 1.487,-0.494 1.879,-0.494 0.399,0 1.588,0.261 3.569,0.791 1.98,0.527 3.164,0.791 3.562,0.791 h 1.879 1.885 c 0.392,0 1.514,0.199 3.366,0.594 1.846,0.396 2.968,0.595 3.365,0.595 0.528,0 1.319,-0.429 2.373,-1.287 1.055,-0.861 1.852,-1.354 2.379,-1.484 0.129,0.693 0.46,1.613 0.993,2.771 4.751,-0.395 7.327,-0.595 7.719,-0.595 0.399,0 1.419,0.626 3.069,1.883 1.649,1.253 2.738,1.882 3.27,1.882 0.393,0 1.318,-0.199 2.771,-0.595 0.528,0.66 0.657,1.714 0.399,3.167 -0.399,2.507 -0.595,3.828 -0.595,3.96 0.791,0.794 1.319,1.19 1.582,1.19 0.92,0 1.913,-0.463 2.973,-1.386 1.712,-1.456 2.9,-2.376 3.562,-2.773 0,-0.923 0.129,-2.376 0.399,-4.357 0.656,-0.662 1.447,-1.717 2.373,-3.167 1.846,-7.396 4.09,-14.922 6.731,-22.576 4.096,-11.223 6.339,-17.559 6.738,-19.009 1.054,-3.436 2.704,-5.811 4.948,-7.13 1.318,-0.791 2.704,-1.585 4.157,-2.376 C -1.06,6.998 -0.796,2.376 0,0" />
          </g>
          <g
             transform="translate(810.5937,63.4934)"
             id="g4560">
            <path
               inkscape:connector-curvature="0"
               id="path4562"
               style="fill:#231f20;fill-opacity:1;fill-rule:nonzero;stroke:none"
               d="m 0,0 c 0,-0.398 -0.129,-0.893 -0.393,-1.487 -0.268,-0.594 -0.464,-1.088 -0.594,-1.484 0.13,-1.189 0.062,-2.906 -0.197,-5.149 -0.268,-0.53 -1.357,-1.159 -3.27,-1.883 -1.912,-0.726 -3.338,-1.088 -4.258,-1.088 -1.188,0 -2.642,0.99 -4.352,2.971 v 8.316 c -0.135,2.508 -0.595,6.204 -1.392,11.091 0,0.396 -0.297,0.92 -0.887,1.584 -0.594,0.656 -0.891,1.187 -0.891,1.582 0,0.659 0.494,1.849 1.481,3.566 0.992,1.713 1.885,2.838 2.676,3.366 -0.399,3.034 -0.987,7.59 -1.784,13.665 -2.244,2.505 -3.894,6.005 -4.949,10.493 -0.661,3.565 -1.323,7.062 -1.979,10.496 -0.398,1.849 -0.926,4.684 -1.588,8.516 -0.527,0.791 -1.184,2.179 -1.98,4.159 -0.129,0.659 -0.859,4.684 -2.177,12.078 0,0.129 -1.256,1.453 -3.764,3.961 -5.144,-2.643 -10.294,-6.604 -15.444,-11.882 -4.359,-4.622 -7.59,-8.847 -9.705,-12.673 -0.79,-0.53 -1.581,-1.057 -2.372,-1.585 -0.791,-0.529 -1.19,-1.256 -1.19,-2.178 -1.582,-0.132 -3.764,-2.177 -6.535,-6.138 -4.096,-5.545 -6.205,-8.387 -6.334,-8.516 -1.588,-1.717 -3.17,-3.432 -4.757,-5.149 -1.98,-1.981 -3.961,-2.971 -5.941,-2.971 -2.372,0 -4.156,0.957 -5.346,2.872 -1.189,1.913 -2.373,3.863 -3.562,5.843 -0.662,0.923 -0.595,3.366 0.196,7.326 -2.373,4.225 -5.941,9.506 -10.692,15.843 -0.925,2.507 -1.913,5.015 -2.973,7.525 -1.582,3.299 -3.697,4.95 -6.334,4.95 -0.134,-0.53 0,-1.486 0.393,-2.872 0.398,-1.385 0.594,-2.212 0.594,-2.473 0,-0.135 -0.791,-3.17 -2.372,-9.111 0.527,-1.057 0.79,-2.047 0.79,-2.97 0,-1.322 -0.628,-3.037 -1.879,-5.15 -1.257,-2.112 -1.885,-3.632 -1.885,-4.552 0.129,1.318 0.203,-4.69 0.203,-18.022 0,-0.266 -0.331,-0.891 -0.994,-1.882 -0.662,-0.99 -0.987,-1.75 -0.987,-2.277 0,-0.396 0.297,-1.024 0.887,-1.88 0.595,-0.86 0.959,-1.422 1.094,-1.683 0,-0.662 -0.169,-1.881 -0.499,-3.663 -0.331,-1.784 -0.495,-3.006 -0.495,-3.663 0,-0.266 0.46,-1.324 1.386,-3.17 -0.135,0.264 -0.196,-1.189 -0.196,-4.355 0,-0.396 0.101,-1.025 0.297,-1.883 0.196,-0.86 0.298,-1.452 0.298,-1.78 0,-0.331 0.325,-0.828 0.987,-1.488 0.662,-0.662 0.993,-1.186 0.993,-1.584 0,-1.453 -0.729,-4.092 -2.182,-7.921 -1.717,-4.488 -3.367,-6.732 -4.949,-6.732 -0.661,0 -1.716,0.595 -3.169,1.781 -1.453,1.19 -2.373,2.245 -2.771,3.169 -0.135,0.396 0.129,2.508 0.791,6.337 l -1.386,2.774 c 0,0.261 0.46,1.315 1.386,3.167 0.926,1.848 1.453,3.433 1.588,4.755 0.521,5.275 0.723,8.445 0.589,9.503 0,0.397 -0.197,1.452 -0.589,3.168 -0.399,1.319 -0.466,2.376 -0.202,3.167 1.054,3.961 1.587,7.989 1.587,12.082 v 9.901 c 0,1.054 0.224,2.802 0.69,5.247 0.46,2.44 0.695,3.862 0.695,4.258 0,0.395 -0.532,1.514 -1.587,3.366 -1.054,1.849 -1.582,3.035 -1.582,3.565 0,1.451 0.399,2.705 1.19,3.761 2.373,2.903 3.561,4.556 3.561,4.951 0,0.264 -0.331,0.794 -0.987,1.585 -0.662,0.791 -0.992,1.386 -0.992,1.781 -0.135,4.092 -0.264,6.799 -0.394,8.121 -0.397,4.089 -1.188,7.39 -2.378,9.9 1.19,0.13 2.704,0.659 4.555,1.585 0.129,0.791 0.264,1.98 0.393,3.562 0.527,0.794 1.06,1.19 1.587,1.19 1.055,0 2.508,-0.861 4.354,-2.575 0.926,1.054 1.717,1.585 2.378,1.585 1.98,0 3.299,-1.19 3.961,-3.566 0.129,-0.395 0.46,-2.641 0.993,-6.731 0.393,-2.643 1.318,-5.281 2.771,-7.921 1.189,-2.112 2.373,-4.16 3.562,-6.14 0.791,-2.112 2.109,-5.083 3.961,-8.911 1.717,-1.321 4.089,-3.433 7.13,-6.337 0.398,-1.186 1.318,-3.037 2.771,-5.545 1.189,0 2.278,-0.591 3.271,-1.781 0.987,-1.189 1.48,-2.443 1.48,-3.762 0.264,-0.266 0.724,-0.397 1.386,-0.397 1.318,0 2.115,0.397 2.379,1.188 0.264,1.319 0.656,2.245 1.189,2.772 3.035,2.379 6.07,4.687 9.11,6.931 4.219,3.433 6.996,6.6 8.314,9.505 0.791,0.396 1.783,0.991 2.973,1.785 7.652,8.58 11.017,14.322 10.098,17.227 0.791,0.261 2.109,0.99 3.96,2.177 0.528,1.585 1.981,3.991 4.359,7.228 2.373,3.234 3.759,4.853 4.157,4.853 0.527,0 0.824,-0.067 0.892,-0.199 0.061,-0.132 0.298,-0.197 0.69,-0.197 0.399,0 1.453,0.329 3.169,0.991 1.717,0.658 2.772,0.989 3.17,0.989 2.508,0 3.765,-2.445 3.765,-7.326 0,-1.324 -0.102,-2.94 -0.298,-4.853 -0.202,-1.915 -0.236,-2.939 -0.101,-3.068 0.264,-2.511 0.595,-4.95 0.988,-7.329 0.662,-3.434 1.979,-6.468 3.959,-9.108 -0.791,-2.247 -1.183,-3.501 -1.183,-3.764 0,-0.528 0.325,-1.419 0.987,-2.673 0.662,-1.257 1.055,-2.146 1.19,-2.673 0.656,-5.94 4.421,-23.105 11.287,-51.487 C -3.893,11.416 -2.771,9.831 -0.79,7.722 -0.264,1.119 0,-1.456 0,0" />
          </g>
          <g
             transform="translate(945.0498,131.8089)"
             id="g4564">
            <path
               inkscape:connector-curvature="0"
               id="path4566"
               style="fill:#231f20;fill-opacity:1;fill-rule:nonzero;stroke:none"
               d="m 0,0 c -1.184,-2.507 -2.771,-4.487 -4.751,-5.94 0.129,-0.264 0.661,-2.707 1.587,-7.327 -0.797,-0.395 -1.851,-1.122 -3.169,-2.176 0.818,-0.794 1.873,-2.18 3.169,-4.16 l -2.94,-3.169 c 0.651,-5.414 -0.325,-11.95 -2.933,-19.604 -0.785,-0.53 -1.891,-1.585 -3.327,-3.167 -0.92,-1.189 -1.374,-3.635 -1.374,-7.329 -1.566,-1.321 -3.164,-3.464 -4.791,-6.435 -1.632,-2.969 -3.198,-5.216 -4.701,-6.734 -1.498,-1.518 -3.848,-3.335 -7.046,-5.444 -3.198,-2.113 -5.189,-3.169 -5.969,-3.169 -0.393,0 -0.583,0.198 -0.583,0.593 0,0.396 -0.202,0.595 -0.595,0.595 h -1.189 c -0.135,-1.056 -0.27,-2.111 -0.399,-3.169 -0.263,-1.453 -0.987,-2.177 -2.177,-2.177 -0.397,0 -0.992,0.426 -1.783,1.288 -0.791,0.855 -1.385,1.288 -1.778,1.288 -0.533,0 -0.926,-0.138 -1.189,-0.41 -0.663,-1.361 -1.19,-2.278 -1.588,-2.754 -0.393,-0.478 -1.846,-0.915 -4.353,-1.322 -0.269,0 -0.892,-0.407 -1.886,-1.225 -0.987,-0.814 -1.682,-1.221 -2.075,-1.221 -0.533,0 -1.223,0.298 -2.081,0.89 -0.858,0.594 -1.487,0.891 -1.88,0.891 -0.527,0 -2.345,-0.628 -5.446,-1.882 -3.103,-1.251 -4.92,-1.878 -5.447,-1.878 -1.717,0 -2.872,0.627 -3.462,1.878 -0.595,1.254 -1.094,1.882 -1.487,1.882 h -0.594 c 0,-0.395 -0.264,-0.594 -0.791,-0.594 -0.399,0 -0.763,0.263 -1.088,0.794 -0.331,0.524 -0.763,0.791 -1.29,0.791 -0.264,0 -0.662,-0.168 -1.19,-0.497 -0.527,-0.331 -1.054,-0.494 -1.582,-0.494 -1.189,0 -3.663,1.092 -7.427,3.28 -3.759,2.184 -5.812,3.842 -6.137,4.969 -0.331,1.125 -0.629,2.486 -0.893,4.076 -0.791,0.396 -2.047,1.125 -3.763,2.188 -0.264,0.527 -0.129,1.922 0.398,4.174 -1.324,0.527 -2.71,1.59 -4.157,3.18 0.656,2.252 0.723,4.242 0.196,5.966 -0.135,0.129 -0.729,1.254 -1.784,3.377 -0.925,1.591 -1.256,2.783 -0.987,3.579 -1.324,1.99 -3.04,4.904 -5.15,8.749 0.264,1.324 0.46,3.245 0.595,5.764 -0.135,0.929 -0.662,2.387 -1.588,4.373 -0.92,1.985 -1.386,3.181 -1.386,3.579 0,0.396 0.433,3.904 1.291,10.532 0.859,6.628 1.284,10.14 1.284,10.538 0,0.396 -0.364,0.994 -1.087,1.79 -0.724,0.794 -1.089,1.456 -1.089,1.989 0,1.722 1.122,3.113 3.366,4.174 2.771,1.323 4.225,2.12 4.358,2.386 0.523,9.01 2.901,13.517 7.125,13.517 2.115,0 3.169,-0.99 3.169,-2.97 0,-0.527 -0.493,-2.87 -1.48,-7.029 -0.993,-4.16 -1.554,-6.37 -1.689,-6.634 -0.129,-1.585 -0.623,-3.534 -1.481,-5.843 -0.863,-2.311 -1.29,-3.795 -1.29,-4.454 0,-1.321 1.257,-3.697 3.764,-7.13 -1.453,-2.112 -3.041,-6.403 -4.751,-12.872 0,-0.527 0.757,-2.673 2.277,-6.434 1.515,-3.764 2.671,-6.305 3.462,-7.623 -0.264,-0.399 -0.921,-1.125 -1.981,-2.18 0,0.264 0.466,-0.331 1.391,-1.781 -0.134,-0.794 -0.201,-1.852 -0.201,-3.169 1.452,-1.321 2.737,-3.302 3.865,-5.942 1.116,-2.641 2.204,-4.291 3.265,-4.95 0.92,-0.132 2.109,-0.395 3.562,-0.791 0.925,-0.926 2.378,-2.247 4.359,-3.961 0.263,-0.266 2.047,-0.925 5.345,-1.98 2.379,-0.793 3.894,-2.246 4.556,-4.356 1.582,0.261 2.704,-0.07 3.366,-0.99 1.317,-1.585 2.109,-2.511 2.378,-2.774 0.791,0.395 1.386,1.122 1.778,2.179 0.264,0.66 0.994,0.991 2.183,0.991 0.393,0 0.892,-0.101 1.48,-0.298 0.595,-0.198 1.157,-0.297 1.689,-0.297 1.313,2.376 2.771,3.565 4.353,3.565 1.055,0 2.643,-0.594 4.752,-1.784 4.359,2.775 8.712,5.545 13.071,8.319 5.676,3.695 9.374,7.523 11.091,11.484 1.582,0.794 3.231,2.508 4.947,5.149 0.398,4.62 1.751,9.605 4.061,14.95 2.306,5.346 3.467,7.888 3.467,7.625 -1.716,4.487 -2.574,7.062 -2.574,7.724 0,0.261 0.358,1.943 1.088,5.049 0.723,3.1 1.021,6.238 0.892,9.404 -0.331,1.19 -0.993,3.17 -1.98,5.942 6.159,2.111 8.964,3.169 8.42,3.169 1.778,0 2.67,-0.663 2.67,-1.98 -0.134,-2.376 -0.134,-3.633 0,-3.762 C -2.839,2.774 -0.926,1.318 0,0" />
          </g>
          <g
             transform="translate(1049.2178,145.6712)"
             id="g4568">
            <path
               inkscape:connector-curvature="0"
               id="path4570"
               style="fill:#231f20;fill-opacity:1;fill-rule:nonzero;stroke:none"
               d="m 0,0 c 0,-3.829 -3.365,-5.741 -10.098,-5.741 -2.512,0 -4.325,0.328 -5.446,0.989 -1.122,0.659 -2.346,2.18 -3.664,4.556 -0.79,0.129 -1.979,0.625 -3.567,1.483 -1.582,0.859 -2.57,1.288 -2.968,1.288 -0.27,0 -0.993,-0.463 -2.177,-1.386 -0.532,-0.131 -1.885,-0.53 -4.061,-1.189 -2.176,-0.662 -3.596,-0.99 -4.258,-0.99 -0.398,0 -1.319,0.328 -2.771,0.99 -0.662,-1.98 -2.973,-5.018 -6.933,-9.107 -3.434,-3.566 -5.145,-6.471 -5.145,-8.715 0,-1.322 0.062,-2.113 0.196,-2.376 1.711,-1.187 3.17,-2.575 4.354,-4.157 0.134,-0.793 0.465,-1.851 0.992,-3.169 0.92,-1.717 2.508,-2.576 4.752,-2.576 0.398,0 0.858,0.2 1.386,0.595 0.527,0.396 0.993,0.595 1.386,0.595 0.795,0 1.649,-1.058 2.574,-3.17 0.398,-1.057 0.858,-2.111 1.385,-3.166 3.299,-3.17 5.347,-4.755 6.143,-4.755 0.523,0 0.92,0.166 1.184,0.497 0.263,0.328 0.594,0.493 0.993,0.493 2.244,0 5.907,-2.869 10.99,-8.613 5.082,-5.742 7.488,-10.135 7.225,-13.169 -0.129,-1.058 0.263,-2.278 1.189,-3.664 0.926,-1.385 2.183,-2.014 3.765,-1.879 0.656,-2.379 0.987,-4.159 0.987,-5.349 0,-0.131 -0.129,-1.024 -0.392,-2.673 -0.27,-1.652 -0.332,-2.94 -0.197,-3.86 -2.379,-2.905 -4.886,-6.47 -7.528,-10.694 -1.055,-0.527 -2.508,-1.717 -4.354,-3.566 -0.134,-0.922 -0.594,-2.376 -1.385,-4.356 -1.325,-1.979 -3.238,-3.494 -5.744,-4.555 -0.135,-0.129 -1.325,-0.196 -3.569,-0.196 -0.662,-2.376 -4.156,-4.819 -10.49,-7.326 -0.399,0 -0.959,0.331 -1.689,0.99 -0.723,0.661 -1.284,0.989 -1.682,0.989 -0.393,0 -0.987,-0.165 -1.779,-0.496 -0.791,-0.328 -1.453,-0.493 -1.98,-0.493 -0.662,0 -2.412,0.628 -5.251,1.879 -2.839,1.257 -4.387,1.882 -4.65,1.882 -0.399,0 -0.926,-0.098 -1.588,-0.297 -0.661,-0.196 -1.256,-0.298 -1.779,-0.298 -0.133,0.135 -0.331,0.99 -0.594,2.575 -0.269,1.058 -0.864,1.585 -1.783,1.585 -0.399,0 -0.988,-0.166 -1.785,-0.497 -0.791,-0.328 -1.385,-0.493 -1.778,-0.493 -0.398,0 -2.183,1.386 -5.346,4.157 -3.17,2.774 -4.954,4.159 -5.352,4.159 h -0.589 -0.595 c -0.532,0 -1.127,0.892 -1.783,2.673 -0.662,1.782 -1.582,2.673 -2.772,2.673 -0.533,0 -1.026,-0.066 -1.486,-0.196 -0.466,-0.134 -0.764,-0.199 -0.892,-0.199 0.128,0.527 0.196,1.385 0.196,2.575 -1.981,2.505 -2.968,5.215 -2.968,8.117 0,2.244 0.067,3.498 0.197,3.765 0.263,0.791 1.054,1.714 2.378,2.771 1.319,1.055 2.306,1.584 2.968,1.584 0.264,0 0.892,-0.134 1.885,-0.395 0.987,-0.266 1.812,-0.33 2.473,-0.199 0.13,-1.057 0.068,-2.507 -0.196,-4.356 -0.398,-2.247 -0.595,-3.762 -0.595,-4.556 0,-2.111 0.791,-3.831 2.373,-5.146 4.36,-3.566 6.8,-5.349 7.328,-5.349 0.397,0 0.56,0.101 0.499,0.297 -0.068,0.199 0.094,0.298 0.493,0.298 0.398,0 1.683,-0.99 3.859,-2.971 2.183,-1.98 3.534,-2.971 4.062,-2.971 0.398,0 0.758,0.099 1.089,0.298 0.331,0.2 0.756,0.297 1.29,0.297 0.392,0 1.845,-0.791 4.353,-2.376 2.508,-1.584 4.224,-2.375 5.15,-2.375 0.263,0 0.723,0.264 1.385,0.791 0.662,0.53 1.251,0.791 1.784,0.791 0.393,0 0.954,-0.163 1.683,-0.494 0.724,-0.328 1.285,-0.496 1.683,-0.496 1.189,0 2.704,0.793 4.555,2.378 1.846,1.582 3.63,2.376 5.346,2.376 0.656,0.791 3.097,3.1 7.327,6.931 3.034,2.504 4.88,4.88 5.542,7.128 0.264,0.922 0.101,2.111 -0.493,3.564 -0.595,1.453 -0.893,2.309 -0.893,2.575 0,0.923 0.663,1.65 1.981,2.18 0,0.261 -0.168,0.757 -0.494,1.483 -0.33,0.724 -0.493,1.352 -0.493,1.882 0,0.659 0.196,1.251 0.594,1.781 -0.269,0.396 -1.06,1.386 -2.379,2.971 -1.323,1.585 -1.98,2.838 -1.98,3.764 0,0.656 0.196,1.251 0.595,1.781 -1.716,1.846 -2.838,3.694 -3.365,5.546 -1.454,0.658 -2.907,1.054 -4.36,1.185 -0.135,0.132 -0.527,0.66 -1.189,1.585 -0.661,0.923 -1.184,1.386 -1.581,1.386 l -2.576,-0.595 c -0.662,0.794 -0.662,1.785 0,2.971 -1.453,0.264 -3.17,0.595 -5.15,0.99 -2.642,2.64 -5.806,4.883 -9.503,6.735 -2.642,1.45 -4.19,2.936 -4.656,4.454 -0.46,1.517 -0.79,2.342 -0.987,2.476 -0.197,0.129 -1.156,0.66 -2.873,1.585 -1.318,0.525 -1.913,1.386 -1.783,2.573 -1.453,0.659 -3.495,1.913 -6.137,3.763 0.527,0.525 0.791,1.386 0.791,2.575 0,0.92 -0.23,2.376 -0.69,4.357 -0.466,1.979 -0.696,3.298 -0.696,3.96 0,0.129 0.791,1.318 2.379,3.565 -0.27,1.187 -0.135,2.772 0.392,4.751 4.622,4.62 9.969,8.645 16.044,12.081 6.995,3.961 13.066,5.938 18.215,5.938 0.527,0 1.386,-0.528 2.575,-1.582 1.19,-1.06 2.048,-1.584 2.576,-1.584 0.398,0 0.622,0.097 0.695,0.297 0.061,0.196 0.359,0.298 0.887,0.298 0.397,0 1.553,-0.366 3.466,-1.092 1.913,-0.727 3.136,-1.088 3.663,-1.088 0.399,0 0.696,0.098 0.892,0.297 0.196,0.199 0.494,0.298 0.892,0.298 1.318,0 3.298,-1.554 5.941,-4.654 C -1.323,2.342 0,0.527 0,0" />
          </g>
          <g
             transform="translate(460.5674,577.9939)"
             id="g4572">
            <path
               inkscape:connector-curvature="0"
               id="path4574"
               style="fill:#bf1e2d;fill-opacity:1;fill-rule:nonzero;stroke:none"
               d="m 0,0 c 0,0 -33.88,-35.721 -72.547,-22.464 0,0 15.835,1.473 16.94,6.629 L -61.131,0 -50.083,-14.73 c 0,0 32.039,2.209 50.083,14.73" />
          </g>
          <g
             transform="translate(383.6011,590.054)"
             id="g4576">
            <path
               inkscape:connector-curvature="0"
               id="path4578"
               style="fill:#bf1e2d;fill-opacity:1;fill-rule:nonzero;stroke:none"
               d="m 0,0 c 0,0 3.314,-13.258 8.838,-11.048 5.524,2.21 36.827,58.922 90.96,28.724 0,0 -29.46,21.727 -49.899,17.677 C 29.461,31.302 5.156,13.994 0,0" />
          </g>
          <g
             transform="translate(360.4009,575.3235)"
             id="g4580">
            <path
               inkscape:connector-curvature="0"
               id="path4582"
               style="fill:#bf1e2d;fill-opacity:1;fill-rule:nonzero;stroke:none"
               d="M 0,0 C 0,0 0,-6.629 -3.683,-5.892 -7.365,-5.156 -20.254,4.419 -22.464,0 c 0,0 5.524,13.994 22.464,0" />
          </g>
          <g
             transform="translate(366.293,580.9402)"
             id="g4584">
            <path
               inkscape:connector-curvature="0"
               id="path4586"
               style="fill:#bf1e2d;fill-opacity:1;fill-rule:nonzero;stroke:none"
               d="m 0,0 c 0,0 -5.156,-47.506 -15.651,-70.338 -10.495,-22.832 -20.807,-32.407 -14.178,-43.086 6.629,-10.68 34.585,-16.203 34.585,-16.203 0,0 -26.115,12.888 -26.852,25.041 C -22.832,-92.434 11.416,-39.772 0,0" />
          </g>
          <g
             transform="translate(374.3945,438.4236)"
             id="g4588">
            <path
               inkscape:connector-curvature="0"
               id="path4590"
               style="fill:#bf1e2d;fill-opacity:1;fill-rule:nonzero;stroke:none"
               d="m 0,0 c 0,0 -9.943,-20.254 1.841,-27.251 5.155,-3.061 22.284,7.336 40.877,4.787 22.096,-3.029 57.695,-2.455 59.535,-6.874 1.842,-4.419 -12.398,-70.338 -24.55,-82.491 -12.153,-12.152 -20.438,-14.853 -18.597,-19.64 1.841,-4.787 10.864,-17.686 20.438,-15.288 9.575,2.399 27.988,55.06 31.671,76.051 3.682,20.991 0,38.299 0,38.299 0,0 28.724,-53.398 29.828,-72.547 0,0 -4.05,60.026 -33.879,91.697 -29.829,31.67 -63.709,62.604 -69.233,74.02 0,0 13.626,-29.829 60.763,-75.493 0,0 -64.077,26.882 -98.694,14.73" />
          </g>
          <g
             transform="translate(385.0742,407.4895)"
             id="g4592">
            <path
               inkscape:connector-curvature="0"
               id="path4594"
               style="fill:#bf1e2d;fill-opacity:1;fill-rule:nonzero;stroke:none"
               d="m 0,0 c 0,0 1.105,-12.721 5.156,-12.252 l 4.051,0.468 c 0,0 29.829,-25.779 33.879,-72.548 0,0 5.156,26.147 -10.311,48.979 -15.467,22.832 -18.045,24.673 -18.045,24.673 0,0 9.575,-0.368 9.943,2.21 0,0 13.994,1.473 14.547,4.787 l -2.762,7.734 c 0,0 0.368,-6.997 -4.051,-8.102 -4.419,-1.105 -9.184,-1.149 -10.451,6.26 0,0 0.508,-7.365 -1.702,-8.837 -2.209,-1.474 -8.101,-2.21 -10.311,-1.474 -2.21,0.737 -4.419,9.943 -4.419,9.943 0,0 0.736,-9.206 -0.368,-9.574 C 4.051,-8.102 0,0 0,0" />
          </g>
          <g
             transform="translate(404.5918,500.6595)"
             id="g4596">
            <path
               inkscape:connector-curvature="0"
               id="path4598"
               style="fill:#bf1e2d;fill-opacity:1;fill-rule:nonzero;stroke:none"
               d="m 0,0 c 0,0 20.711,-21.359 2.438,-27.988 -18.273,-6.629 -29.321,-1.473 -31.53,-2.209 -2.21,-0.737 11.924,5.155 21.727,3.682 C 2.438,-27.988 12.889,-17.677 0,0" />
          </g>
          <g
             transform="translate(358.1914,451.3128)"
             id="g4600">
            <path
               inkscape:connector-curvature="0"
               id="path4602"
               style="fill:#bf1e2d;fill-opacity:1;fill-rule:nonzero;stroke:none"
               d="M 0,0 C 0,0 4.427,-15.28 13.261,-21.266 13.261,-21.266 12.028,-8.372 0,0" />
          </g>
          <g
             transform="translate(364.8218,552.5798)"
             id="g4604">
            <path
               inkscape:connector-curvature="0"
               id="path4606"
               style="fill:#bf1e2d;fill-opacity:1;fill-rule:nonzero;stroke:none"
               d="m 0,0 c 0,0 -6.999,-12.885 -25.412,-9.202 0,0 9.575,-8.839 22.464,-3.683 z" />
          </g>
          <g
             transform="translate(350.6421,617.7659)"
             id="g4608">
            <path
               inkscape:connector-curvature="0"
               id="path4610"
               style="fill:#bf1e2d;fill-opacity:1;fill-rule:nonzero;stroke:none"
               d="M 0,0 C 0,0 -5.815,44.191 19.833,73.652 19.833,73.652 -25.594,57.449 0,0" />
          </g>
          <g
             transform="translate(455.0435,290.7513)"
             id="g4612">
            <path
               inkscape:connector-curvature="0"
               id="path4614"
               style="fill:#bf1e2d;fill-opacity:1;fill-rule:nonzero;stroke:none"
               d="m 0,0 c 0,0 8.102,6.997 12.521,-12.152 4.419,-19.15 30.934,-19.15 55.976,0 25.042,19.149 107.532,143.253 109.004,166.821 0,0 -14.73,-75.493 -106.059,-181.184 0,0 -44.927,-33.511 -59.657,-4.787 C -2.946,-2.578 6.799,-11.988 0,0" />
          </g>
          <g
             transform="translate(419.6904,701.7292)"
             id="g4616">
            <path
               inkscape:connector-curvature="0"
               id="path4618"
               style="fill:#bf1e2d;fill-opacity:1;fill-rule:nonzero;stroke:none"
               d="m 0,0 c 0,0 33.144,-2.946 57.449,-33.88 24.305,-30.934 121.526,-30.934 159.824,-3.683 0,0 -92.064,-32.52 -142.884,8.782 C 23.569,12.521 0,0 0,0" />
          </g>
          <g
             transform="translate(525.7495,634.4729)"
             id="g4620">
            <path
               inkscape:connector-curvature="0"
               id="path4622"
               style="fill:#bf1e2d;fill-opacity:1;fill-rule:nonzero;stroke:none"
               d="M 0,0 C 0,0 61.868,-38.532 132.574,0 132.574,0 58.921,-19.383 0,0" />
          </g>
          <g
             transform="translate(592.0361,606.718)"
             id="g4624">
            <path
               inkscape:connector-curvature="0"
               id="path4626"
               style="fill:#bf1e2d;fill-opacity:1;fill-rule:nonzero;stroke:none"
               d="m 0,0 c 0,0 11.437,-48.246 35.179,-41.431 23.743,6.815 45.101,57.874 115.071,22.033 0,0 -36.397,37.253 -83.963,9.823 C 18.721,-37.004 16.94,-30.197 0,0" />
          </g>
          <g
             transform="translate(716.5078,574.3113)"
             id="g4628">
            <path
               inkscape:connector-curvature="0"
               id="path4630"
               style="fill:#bf1e2d;fill-opacity:1;fill-rule:nonzero;stroke:none"
               d="m 0,0 c 0,0 -8.102,17.595 -24.305,15.794 -16.204,-1.8 -40.508,-18.012 -28.724,-37.525 11.784,-19.514 24.957,-23.197 24.957,-23.197 0,0 -5.808,11.776 -13.909,23.197 -8.102,11.419 0,33.401 8.101,25.356 8.102,-8.044 27.988,-32.606 27.988,-32.606 z" />
          </g>
          <g
             transform="translate(650.958,534.5393)"
             id="g4632">
            <path
               inkscape:connector-curvature="0"
               id="path4634"
               style="fill:#bf1e2d;fill-opacity:1;fill-rule:nonzero;stroke:none"
               d="m 0,0 c 0,0 9.574,-8.102 2.946,-18.413 -6.629,-10.311 1.136,-18.413 6.46,-15.467 5.324,2.946 14.899,22.096 21.528,15.467 6.629,-6.629 17.676,4.419 16.203,13.257 0,0 -5.892,-11.784 -17.676,-7.365 C 17.677,-8.102 14.393,-30.126 9.406,-22.832 4.419,-15.538 20.622,-8.838 0,0" />
          </g>
          <g
             transform="translate(718.7178,534.5393)"
             id="g4636">
            <path
               inkscape:connector-curvature="0"
               id="path4638"
               style="fill:#bf1e2d;fill-opacity:1;fill-rule:nonzero;stroke:none"
               d="m 0,0 c 0,0 -4.285,-55.239 -44.124,-60.395 -39.84,-5.155 -42.049,13.994 -42.049,13.994 0,0 49.347,-36.089 86.173,46.401" />
          </g>
          <g
             transform="translate(358.1914,533.9465)"
             id="g4640">
            <path
               inkscape:connector-curvature="0"
               id="path4642"
               style="fill:#bf1e2d;fill-opacity:1;fill-rule:nonzero;stroke:none"
               d="M 0,0 C 0,0 -6.394,9.861 17.077,16.796 17.077,16.796 1.982,7.573 0,0" />
          </g>
          <g
             transform="translate(361.874,548.9363)"
             id="g4644">
            <path
               inkscape:connector-curvature="0"
               id="path4646"
               style="fill:#bf1e2d;fill-opacity:1;fill-rule:nonzero;stroke:none"
               d="M 0,0 C 0,0 -0.999,13.632 20.254,15.691 20.254,15.691 7.741,10.826 0,0" />
          </g>
          <g
             transform="translate(402.4434,569.3743)"
             id="g4648">
            <path
               inkscape:connector-curvature="0"
               id="path4650"
               style="fill:#bf1e2d;fill-opacity:1;fill-rule:nonzero;stroke:none"
               d="M 0,0 36.765,11.566 1.103,-3.161 Z" />
          </g>
          <g
             transform="translate(463.1455,580.9402)"
             id="g4652">
            <path
               inkscape:connector-curvature="0"
               id="path4654"
               style="fill:#bf1e2d;fill-opacity:1;fill-rule:nonzero;stroke:none"
               d="M 0,0 C 0,0 29.829,-3.657 43.086,4.984 43.086,4.984 26.883,-12.521 0,0" />
          </g>
          <g
             transform="translate(464.6182,575.4583)"
             id="g4656">
            <path
               inkscape:connector-curvature="0"
               id="path4658"
               style="fill:#bf1e2d;fill-opacity:1;fill-rule:nonzero;stroke:none"
               d="m 0,0 c 0,0 12.153,-9.985 32.407,-4.461 0,0 -20.991,-10.308 -32.407,2.579" />
          </g>
          <g
             transform="translate(480.8218,621.5667)"
             id="g4660">
            <path
               inkscape:connector-curvature="0"
               id="path4662"
               style="fill:#bf1e2d;fill-opacity:1;fill-rule:nonzero;stroke:none"
               d="m 0,0 c 0,-2.398 -1.944,-4.343 -4.343,-4.343 -2.399,0 -4.344,1.945 -4.344,4.343 0,2.399 1.945,4.343 4.344,4.343 C -1.944,4.343 0,2.399 0,0" />
          </g>
          <g
             transform="translate(474.3452,600.6648)"
             id="g4664">
            <path
               inkscape:connector-curvature="0"
               id="path4666"
               style="fill:#bf1e2d;fill-opacity:1;fill-rule:nonzero;stroke:none"
               d="m 0,0 c 0,-2.102 -1.704,-3.805 -3.806,-3.805 -2.101,0 -3.805,1.703 -3.805,3.805 0,2.102 1.704,3.805 3.805,3.805 C -1.704,3.805 0,2.102 0,0" />
          </g>
          <g
             transform="translate(686.1641,469.1165)"
             id="g4668">
            <path
               inkscape:connector-curvature="0"
               id="path4670"
               style="fill:#bf1e2d;fill-opacity:1;fill-rule:nonzero;stroke:none"
               d="m 0,0 c 0,-2.291 -1.856,-4.147 -4.147,-4.147 -2.29,0 -4.147,1.856 -4.147,4.147 0,2.29 1.857,4.147 4.147,4.147 C -1.856,4.147 0,2.29 0,0" />
          </g>
          <g
             transform="translate(695.9189,505.9632)"
             id="g4672">
            <path
               inkscape:connector-curvature="0"
               id="path4674"
               style="fill:#bf1e2d;fill-opacity:1;fill-rule:nonzero;stroke:none"
               d="m 0,0 c 0,-2.066 -1.675,-3.742 -3.741,-3.742 -2.067,0 -3.742,1.676 -3.742,3.742 0,2.066 1.675,3.742 3.742,3.742 C -1.675,3.742 0,2.066 0,0" />
          </g>
          <g
             transform="translate(734.1289,540.2893)"
             id="g4676">
            <path
               inkscape:connector-curvature="0"
               id="path4678"
               style="fill:#bf1e2d;fill-opacity:1;fill-rule:nonzero;stroke:none"
               d="m 0,0 c 0,3.176 2.575,5.75 5.751,5.75 3.176,0 5.75,-2.574 5.75,-5.75 0,-3.176 -2.574,-5.75 -5.75,-5.75 C 2.575,-5.75 0,-3.176 0,0" />
          </g>
          <g
             transform="translate(683.6113,592.031)"
             id="g4680">
            <path
               inkscape:connector-curvature="0"
               id="path4682"
               style="fill:#bf1e2d;fill-opacity:1;fill-rule:nonzero;stroke:none"
               d="m 0,0 c 0,-2.204 -1.786,-3.99 -3.99,-3.99 -2.203,0 -3.99,1.786 -3.99,3.99 0,2.204 1.787,3.99 3.99,3.99 C -1.786,3.99 0,2.204 0,0" />
          </g>
          <g
             transform="translate(464.6182,392.4754)"
             id="g4684">
            <path
               inkscape:connector-curvature="0"
               id="path4686"
               style="fill:#bf1e2d;fill-opacity:1;fill-rule:nonzero;stroke:none"
               d="m 0,0 c 0,0 -45.021,-27.251 -23.294,-64.077 0,0 -7.914,31.302 23.294,64.077" />
          </g>
          <g
             transform="translate(572.2314,323.158)"
             id="g4688">
            <path
               inkscape:connector-curvature="0"
               id="path4690"
               style="fill:#bf1e2d;fill-opacity:1;fill-rule:nonzero;stroke:none"
               d="m 0,0 c 0,0 26.24,-3.161 36.183,-68.192 0,0 22.596,35.008 -26.592,82.535 L -4.6,9 Z" />
          </g>
        </g>
      </g>
    </g>
  </g>
</svg>
